<svg xmlns="http://www.w3.org/2000/svg" width="15" height="19" fill="none" viewBox="0 0 15 19"><path fill="#fff" d="M14.056 5.914c0 1.346-.813 2.505-2.438 3.479-1.422.871-2.86 1.307-4.316 1.307-.195 0-.449-.021-.762-.063a9.748 9.748 0 0 0-.749-.051l-.914-1.84c-.567 1.108-.85 2.475-.85 4.1 0 .575.177 1.05.533 1.422.355.372.816.558 1.383.558 2.76 0 4.537-.546 5.332-1.638l1.067.445v.622c0 .846-.2 1.764-.597 2.755-1.506.905-3.119 1.358-4.837 1.358-2.319 0-3.906-.512-4.76-1.536-.55-.677-.932-1.502-1.143-2.476-.119-.634-.178-1.544-.178-2.729 0-1.058.284-2.251.85-3.58a16.044 16.044 0 0 1 1.854-3.25c.796-1.075 1.799-2.065 3.009-2.97C8.013.75 9.303.213 10.412.213c2.43 0 3.644 1.9 3.644 5.7zM10.78 4.657c0-.347-.067-.673-.203-.977-2.099.533-3.842 1.934-5.23 4.202.482.144.846.216 1.091.216.99 0 1.934-.322 2.832-.965 1.007-.711 1.51-1.536 1.51-2.476z"/></svg>