<svg xmlns="http://www.w3.org/2000/svg" width="5" height="5" viewBox="0 0 5 5"><g fill="#37A5BB" fill-rule="evenodd"><path d="M4.999 2.594c-.087.166-.231.271-.398.355L2.13 4.196a.405.405 0 0 1-.486-.063.3.3 0 0 1-.106-.235c.006-.417.007-.836.012-1.253.002-.19.104-.292.281-.292.179 0 .276.1.276.294 0 .258-.001.515-.008.772-.002.092.01.122.11.071.474-.234.95-.463 1.426-.692.128-.061.265-.127.27-.277.003-.143-.129-.213-.249-.278L1.24.907a1.672 1.672 0 0 0-.184-.093c-.2-.078-.363.02-.382.228-.003.036-.002.072-.002.107L.65 3.79c0 .064-.005.13.018.196.052.148.157.203.312.158.052-.015.105-.034.16-.042.207-.027.356.151.286.34a.312.312 0 0 1-.128.17c-.263.146-.512.32-.82.379-.23.043-.386-.054-.448-.271C0 4.61 0 4.499 0 4.389L.031.59c0-.06 0-.124.01-.185A.496.496 0 0 1 .376 0l.279.002c.08.039.163.075.242.118l3.716 1.963c.168.089.31.203.387.378l-.001.133"/><path d="M2.117 1.831a.283.283 0 0 1-.288.278.293.293 0 0 1-.279-.289c.002-.157.128-.273.29-.27.165.003.28.121.277.281Z"/></g></svg>