<svg xmlns="http://www.w3.org/2000/svg" width="244" height="47" viewBox="0 0 244 47"><g fill="#9B9B9B" fill-rule="nonzero"><path d="M48.346 18.34c0-1.128.322-1.942.967-2.446.645-.503 1.552-.755 2.72-.755.726 0 1.389.09 1.993.271.604.182 1.007.312 1.208.393V31.69c0 2.74.645 4.824 1.934 6.253 1.289 1.43 3.264 2.146 5.922 2.146 2.657 0 4.631-.716 5.92-2.146 1.289-1.429 1.933-3.513 1.933-6.253V18.34c0-1.128.322-1.942.969-2.446.643-.503 1.528-.755 2.655-.755.768 0 1.451.09 2.057.271.604.181 1.007.312 1.207.393v17.399c0 2.054-.353 3.896-1.057 5.527-.707 1.632-1.713 3.012-3.021 4.139-1.311 1.129-2.87 1.984-4.685 2.568-1.812.582-3.806.875-5.979.875-2.175 0-4.169-.293-5.981-.875-1.812-.584-3.363-1.439-4.651-2.568-1.289-1.127-2.296-2.507-3.021-4.139-.725-1.631-1.088-3.475-1.088-5.527l-.002-14.862ZM83.265 9.761c0-1.128.322-1.941.968-2.446.645-.503 1.529-.755 2.658-.755.725 0 1.398.091 2.023.272.624.182 1.036.312 1.236.393v7.915h8.763c1.328 0 2.265.271 2.809.815.545.544.815 1.339.815 2.387 0 .687-.102 1.318-.304 1.902-.2.584-.36.997-.481 1.238h-11.6v13.473c0 1.048.143 1.903.425 2.567.28.664.674 1.197 1.177 1.601a4.418 4.418 0 0 0 1.754.847 8.815 8.815 0 0 0 2.083.241c1.168 0 2.256-.182 3.263-.544 1.007-.362 1.732-.704 2.175-1.025l2.779 4.591c-.322.242-.775.544-1.358.907-.584.361-1.3.704-2.146 1.025a19.18 19.18 0 0 1-2.839.815c-1.048.222-2.195.332-3.443.332-3.544 0-6.223-.915-8.035-2.749-1.812-1.831-2.72-4.238-2.72-7.22l-.002-26.582ZM106.645 4.142c0-1.087.322-1.894.968-2.416.644-.523 1.551-.786 2.719-.786a6.99 6.99 0 0 1 1.993.271c.604.183 1.006.312 1.209.395v17.338c1.006-1.288 2.396-2.386 4.167-3.293 1.773-.906 3.807-1.359 6.103-1.359 2.215 0 4.26.394 6.134 1.18a14.696 14.696 0 0 1 4.894 3.321c1.39 1.432 2.477 3.122 3.262 5.075.786 1.954 1.179 4.098 1.179 6.435 0 2.296-.402 4.432-1.208 6.403-.807 1.975-1.936 3.665-3.383 5.075-1.451 1.41-3.173 2.518-5.166 3.322-1.994.805-4.18 1.208-6.556 1.208-2.376 0-4.562-.361-6.555-1.087-1.993-.726-3.716-1.812-5.166-3.264-1.449-1.448-2.576-3.262-3.383-5.438-.807-2.175-1.209-4.731-1.209-7.672l-.002-24.708Zm16.19 35.947c1.368 0 2.629-.252 3.776-.756a9.09 9.09 0 0 0 2.961-2.054 8.926 8.926 0 0 0 1.901-3.082c.443-1.187.664-2.485.664-3.896 0-1.41-.221-2.72-.664-3.928-.441-1.208-1.078-2.244-1.901-3.11a9.117 9.117 0 0 0-2.961-2.055c-1.148-.503-2.408-.756-3.776-.756-1.41 0-2.688.253-3.836.756a8.579 8.579 0 0 0-2.931 2.084c-.807.888-1.438 1.936-1.902 3.143a10.718 10.718 0 0 0-.694 3.866c0 1.449.231 2.779.694 3.986.464 1.209 1.106 2.235 1.934 3.082a8.898 8.898 0 0 0 2.961 1.993c1.147.485 2.404.727 3.774.727ZM143.316 25.952c0-3.706 1.139-6.575 3.414-8.609 2.275-2.033 5.428-3.052 9.454-3.052 2.538 0 4.603.354 6.193 1.059 1.591.705 2.387 1.781 2.387 3.231 0 .687-.192 1.351-.574 1.993-.384.646-.694 1.048-.936 1.209-.687-.322-1.53-.624-2.537-.906-1.008-.28-2.156-.424-3.445-.424-4.71 0-7.065 2.498-7.065 7.492v17.52h-6.89V25.952h-.001ZM194.544 45.345c-.401.08-1.035.171-1.901.271-.865.1-1.884.201-3.051.302-1.17.101-2.477.191-3.927.272a83.27 83.27 0 0 1-4.529.12c-3.144 0-5.71-.271-7.704-.814-1.994-.545-3.564-1.27-4.712-2.176-1.148-.906-1.933-1.953-2.357-3.143a10.825 10.825 0 0 1-.633-3.653c0-1.65.25-3.102.754-4.351.503-1.248 1.33-2.296 2.479-3.141 1.146-.847 2.645-1.48 4.501-1.904 1.852-.423 4.109-.634 6.767-.634 1.528 0 2.981.051 4.35.151 1.368.102 2.396.191 3.081.271 0-1.41-.231-2.578-.693-3.505-.465-.926-1.099-1.649-1.904-2.175-.806-.523-1.771-.886-2.898-1.088-1.128-.201-2.378-.302-3.745-.302-2.296 0-4.141.263-5.529.785-1.388.523-2.304.967-2.749 1.329-.241-.201-.573-.584-.996-1.147-.422-.563-.633-1.248-.633-2.055 0-.563.149-1.117.452-1.661.302-.543.835-1.027 1.602-1.45.766-.423 1.791-.754 3.08-.996 1.289-.242 2.92-.363 4.893-.363 2.377 0 4.542.233 6.495.695 1.955.464 3.634 1.199 5.044 2.205 1.41 1.008 2.507 2.337 3.293 3.986.786 1.652 1.177 3.646 1.177 5.98v18.189h-.007v.002Zm-6.825-13.413a54.209 54.209 0 0 0-2.265-.362c-1.11-.159-2.771-.241-4.984-.241-2.741 0-4.732.413-5.982 1.239-1.247.825-1.87 2.124-1.87 3.896 0 .727.129 1.391.392 1.994.261.604.715 1.117 1.359 1.541.645.423 1.52.746 2.629.966 1.105.223 2.486.333 4.14.333 1.851 0 3.322-.069 4.409-.212 1.087-.141 1.812-.251 2.174-.332v-8.821h-.002v-.001ZM204.151 1.544c1.168 0 2.154.403 2.96 1.209.805.807 1.208 1.792 1.208 2.96s-.403 2.154-1.208 2.96c-.806.808-1.792 1.208-2.96 1.208s-2.154-.4-2.961-1.208c-.806-.806-1.207-1.792-1.207-2.96s.401-2.153 1.207-2.96c.806-.806 1.793-1.209 2.961-1.209Zm-3.444 16.796c0-1.128.322-1.942.967-2.446.645-.503 1.552-.755 2.72-.755.725 0 1.391.09 1.993.271.604.181 1.006.312 1.208.393v29.663h-6.888V18.34ZM213.757 27.159c0-2.013.371-3.815 1.117-5.406a11.747 11.747 0 0 1 3.081-4.048c1.31-1.106 2.858-1.953 4.651-2.537 1.791-.584 3.755-.877 5.89-.877 2.136 0 4.107.293 5.921.877 1.812.584 3.373 1.431 4.682 2.537a11.449 11.449 0 0 1 3.052 4.048c.726 1.591 1.089 3.395 1.089 5.406v18.306h-6.889V28.911c0-2.737-.665-4.822-1.993-6.252-1.33-1.43-3.283-2.145-5.86-2.145-2.617 0-4.581.715-5.89 2.145-1.31 1.43-1.964 3.515-1.964 6.252v16.554h-6.887V27.159ZM42.911 16.104c-1.129-2.657-2.688-4.963-4.684-6.917-1.993-1.953-4.329-3.483-7.008-4.591-2.679-1.108-5.588-1.662-8.728-1.662-3.142 0-6.053.554-8.73 1.662-2.679 1.107-5.015 2.638-7.008 4.591-1.993 1.954-3.555 4.26-4.684 6.917-1.127 2.659-1.69 5.539-1.69 8.64 0 3.104.562 5.98 1.69 8.64 1.129 2.658 2.689 4.965 4.684 6.917 1.993 1.954 4.329 3.484 7.008 4.593 2.679 1.107 5.589 1.661 8.73 1.661s6.051-.555 8.728-1.661c2.678-1.107 5.015-2.639 7.008-4.593 1.994-1.952 3.555-4.259 4.684-6.917 1.126-2.658 1.689-5.536 1.689-8.64.001-3.101-.563-5.981-1.689-8.64ZM9.294 23.146c2.463-.814 5.731-1.849 5.731-1.849 7.191-2.289 8.151-4.99 8.151-4.99s1.513 2.701 6.733 4.487c0 0 2.884.947 5.565 1.915.134.269.273.534.393.815a13.75 13.75 0 0 1 .961 3.513H33.14l-.023-.064a5.079 5.079 0 0 0-1.114-1.647 5.211 5.211 0 0 0-1.667-1.092 5.377 5.377 0 0 0-2.077-.396c-.747 0-1.439.133-2.076.396a5.194 5.194 0 0 0-1.668 1.092 5.014 5.014 0 0 0-1.325 2.259h-1.396a5.045 5.045 0 0 0-2.993-3.351 5.369 5.369 0 0 0-2.076-.396c-.748 0-1.44.133-2.077.396a5.2 5.2 0 0 0-1.667 1.092 4.966 4.966 0 0 0-1.112 1.647c-.011.02-.018.044-.026.064H8.15c.17-1.228.489-2.401.962-3.513.055-.129.123-.25.182-.378Zm22.088 5.881c0 .438-.079.846-.239 1.222-.159.374-.379.7-.661.978-.28.275-.611.491-.989.647a3.186 3.186 0 0 1-1.233.235c-.444 0-.855-.078-1.233-.235a3 3 0 0 1-1.651-1.625 3.104 3.104 0 0 1-.238-1.222c0-.438.079-.845.238-1.221a3.01 3.01 0 0 1 1.651-1.626 3.2 3.2 0 0 1 1.233-.234c.444 0 .854.078 1.233.234.378.156.709.374.989.648.282.276.502.603.661.978.16.377.239.785.239 1.221Zm-11.535 0a3.018 3.018 0 0 1-.901 2.2c-.28.275-.61.491-.989.647a3.181 3.181 0 0 1-1.232.235c-.444 0-.855-.078-1.232-.235a2.979 2.979 0 0 1-1.651-1.625 3.087 3.087 0 0 1-.24-1.222c0-.438.08-.845.24-1.221a2.989 2.989 0 0 1 1.651-1.626 3.196 3.196 0 0 1 1.232-.234 3.2 3.2 0 0 1 1.232.234c.379.156.709.374.989.648.282.276.504.603.663.978.158.377.238.785.238 1.221Zm12.954 10.351c-1.306 1.281-2.836 2.283-4.591 3.011-1.756.726-3.662 1.088-5.72 1.088-2.06 0-3.967-.362-5.722-1.088-1.755-.728-3.285-1.729-4.592-3.011a13.794 13.794 0 0 1-3.066-4.531c-.715-1.683-1.079-3.503-1.104-5.456h3.468c.037.602.166 1.165.392 1.691a4.986 4.986 0 0 0 1.112 1.646c.475.465 1.03.829 1.667 1.091a5.337 5.337 0 0 0 2.077.396c.747 0 1.439-.132 2.076-.396a5.154 5.154 0 0 0 1.667-1.091 5 5 0 0 0 1.113-1.646c.178-.418.296-.859.355-1.325h1.111a5.05 5.05 0 0 0 1.467 2.971c.475.465 1.03.829 1.668 1.091a5.332 5.332 0 0 0 2.076.396c.748 0 1.438-.132 2.077-.396a5.176 5.176 0 0 0 1.667-1.091 5.11 5.11 0 0 0 1.504-3.337h3.467c-.022 1.953-.391 3.773-1.104 5.456a13.756 13.756 0 0 1-3.065 4.531Z"/></g></svg>