<svg xmlns="http://www.w3.org/2000/svg" id="Layer_2" viewBox="0 0 337.084 20.169"><g id="Layer_1-2"><path d="M17.90232,12.26008c-.21631,2.41211-1.0625,4.3291-2.53809,5.75098-3.04684,3.07757-9.98362,2.79874-12.81146-.63485C.85154,15.53157,.00095,13.08821,.00095,10.04573-.06902,4.47855,3.71292-.10458,9.45118,.00182c2.28562-.00003,4.20261,.64792,5.75095,1.9443,1.54785,1.2959,2.40283,2.94287,2.56494,4.94092h-4.13086c-.42694-2.16026-2.0658-3.36178-4.26611-3.34814-6.95798-.06239-6.86445,13.15927-.05383,13.04147,2.57385,.00003,4.04065-1.4404,4.401-4.32029h4.18506Zm19.00781,3.80664v3.61816h-13.6084V.46077h4.2124v15.60596h9.396ZM45.94138,.46077V19.68489h-4.23926V.46077h4.23926Zm23.47119,11.79932c-.21631,2.41211-1.0625,4.3291-2.53809,5.75098-3.04684,3.07757-9.98362,2.79874-12.81146-.63485-1.70123-1.84464-2.55182-4.288-2.55182-7.33048C51.44123,4.47855,55.22317-.10458,60.96143,.00182c2.28562-.00003,4.20261,.64792,5.75095,1.9443,1.54785,1.2959,2.40283,2.94287,2.56494,4.94092h-4.13086c-.42694-2.16026-2.0658-3.36178-4.26611-3.34814-6.95798-.06239-6.86445,13.15927-.05383,13.04147,2.57385,.00003,4.04065-1.4404,4.401-4.32029h4.18506ZM91.87351,.46077l-7.5332,7.58691,8.23486,11.63721h-5.29199l-5.83154-8.64014-2.45703,2.43018v6.20996h-4.1582V.46077h4.1582v7.99219L86.55418,.46077h5.31934Zm29.5918,0v3.59131h-5.77783v15.63281h-4.23926V4.05208h-5.77783V.46077h15.79492ZM134.65183,.00178c5.75054-.06646,9.5109,4.38678,9.42281,10.09815,.22521,13.44236-19.17047,13.40911-18.95405-.00008C125.04236,4.27067,128.78467-.06152,134.65183,.00178Zm-.0542,3.45605c-3.55091,.01688-5.24143,3.06532-5.21092,6.561-.28378,8.86111,10.73436,8.92864,10.42181,0,.02551-3.53385-1.61983-6.54313-5.21089-6.56099ZM159.84275,.46077h9.09912c1.7998,0,3.271,.40088,4.41455,1.20166,2.60437,1.69975,2.16909,6.4793-.90491,7.60051,4.08654,.78221,4.57448,6.66312,1.67436,8.92403-1.22452,.9989-2.78116,1.49792-4.67081,1.49792h-9.6123V.46077Zm4.104,3.26709v4.50879h3.83398c2.12402,0,3.18604-.74658,3.18604-2.24072,.00306-1.9538-1.45508-2.21545-3.18602-2.2681l-3.834,.00003Zm0,7.37109v5.23828h4.23926c1.99101-.05786,3.57136-.37594,3.56398-2.61912-.00333-2.33648-1.71444-2.54624-3.78026-2.61921l-4.02298,.00004Zm31.15283,4.96777v3.61816h-13.6084V.46077h4.2124v15.60596h9.396ZM208.33689,.00178c5.75054-.06646,9.5109,4.38678,9.42281,10.09815,.22521,13.44236-19.17047,13.40911-18.95405-.00008C198.72742,4.27067,202.46973-.06152,208.33689,.00178Zm-.0542,3.45605c-3.55091,.01688-5.24143,3.06532-5.21092,6.561-.28378,8.86111,10.73436,8.92864,10.42181,0,.02551-3.53385-1.61983-6.54313-5.21089-6.56099Zm32.05469,8.80225c-.21631,2.41211-1.0625,4.3291-2.53809,5.75098-3.04684,3.07757-9.98362,2.79874-12.81146-.63485-1.70123-1.84464-2.55182-4.288-2.55182-7.33048-.06997-5.56717,3.71197-10.15031,9.45022-10.04391,2.28562-.00003,4.20261,.64792,5.75095,1.9443,1.54785,1.2959,2.40283,2.94287,2.56494,4.94092h-4.13086c-.42694-2.16026-2.0658-3.36178-4.26611-3.34814-6.95798-.06239-6.86445,13.15927-.05383,13.04147,2.57385,.00003,4.04065-1.4404,4.401-4.32029h4.18506ZM262.79929,.46077l-7.53369,7.58691,8.23486,11.63721h-5.29199l-5.83154-8.64014-2.45703,2.43018v6.20996h-4.1582V.46077h4.1582v7.99219l7.55957-7.99219h5.31982Zm24.86572-.02686l7.31738,19.25098h-4.42871l-1.51172-4.29297h-7.15527l-1.56543,4.29297h-4.32031L283.31834,.43391h4.34668Zm.35156,11.87988l-2.53809-7.15479-2.56543,7.15479h5.10352Zm11.38965,7.37109V.46077h7.77637c2.9873,0,5.28711,.82812,6.89844,2.48389,3.22365,2.97327,3.22351,11.28408-.00011,14.25683-1.61122,1.65626-3.91103,2.48341-6.89833,2.48341h-7.77637Zm4.18555-3.50977h3.07812c3.72559,0,5.58887-2.03418,5.58887-6.10205-.0042-3.77854-1.72103-6.11451-5.58887-6.10205h-3.07812v12.2041Zm32.69141-9.99023h-3.99609c-.16211-1.90771-1.37695-2.86182-3.64453-2.86182-1.81813-.08065-3.56874,.95695-2.99709,2.80769,.84198,1.31269,2.78072,1.36465,4.26556,1.86335,5.07774,1.12119,8.80158,3.3324,6.45321,8.78855-2.44223,4.26147-10.10567,4.13963-13.35156,1.53912-1.4668-1.19744-2.20997-2.88494-2.22755-5.06267h4.18555c.07129,2.41211,1.52051,3.61816,4.34668,3.61816,1.83487,.00317,3.52978-.69711,3.56449-2.56542-.00004-.66505-.29301-1.15137-.87797-1.45802-.58496-.30566-1.81348-.729-3.68555-1.26904-2.00119-.58211-3.7933-.89572-5.38674-2.21381-2.23772-1.96268-1.79558-6.06962,.58103-7.74901,4.00543-3.00946,13.02012-1.89132,12.77055,4.56292Z"/></g></svg>