<svg width="144" height="23" viewBox="0 0 144 23" fill="none" xmlns="http://www.w3.org/2000/svg"><path d="M.04 22V.82h4.71V22H.04zm3.63 0v-4.14h10.47V22H3.67zm13.786 0V.82h4.71V22h-4.71zm3.6 0v-4.08h11.61V22h-11.61zm0-8.85V9.22h10.56v3.93h-10.56zm0-8.28V.82h11.46v4.05h-11.46zM36.513 22V.82h4.71V22h-4.71zm19.44.33c-1.58 0-3.05-.27-4.41-.81-1.34-.56-2.52-1.34-3.54-2.34-1-1-1.78-2.16-2.34-3.48-.56-1.34-.84-2.78-.84-4.32 0-1.54.28-2.97.84-4.29.56-1.34 1.34-2.5 2.34-3.48 1-.98 2.17-1.74 3.51-2.28 1.36-.56 2.83-.84 4.41-.84 1.68 0 3.17.27 4.47.81 1.32.54 2.47 1.28 3.45 2.22l-3.15 3.18c-.56-.6-1.24-1.07-2.04-1.41-.78-.34-1.69-.51-2.73-.51-.92 0-1.77.16-2.55.48-.76.3-1.42.74-1.98 1.32-.54.58-.97 1.28-1.29 2.1-.3.82-.45 1.72-.45 2.7 0 1 .15 1.91.45 2.73.32.82.75 1.52 1.29 2.1.56.58 1.22 1.03 1.98 1.35.78.32 1.63.48 2.55.48 1.08 0 2.02-.17 2.82-.51.8-.34 1.49-.81 2.07-1.41l3.18 3.18c-1.02.94-2.19 1.68-3.51 2.22-1.3.54-2.81.81-4.53.81zm9.116-.33l8.4-21.18h4.26L86.039 22h-4.98l-6.36-17.58h1.71L69.959 22h-4.89zm4.77-3.84v-3.84h11.55v3.84h-11.55zm31.098 4.17c-1.74 0-3.24-.28-4.5-.84-1.24-.58-2.38-1.45-3.42-2.61l3.06-3.03c.68.78 1.43 1.39 2.25 1.83.84.42 1.81.63 2.91.63 1 0 1.77-.18 2.31-.54.56-.36.84-.86.84-1.5 0-.58-.18-1.05-.54-1.41-.36-.36-.84-.67-1.44-.93-.58-.26-1.23-.51-1.95-.75-.7-.24-1.4-.51-2.1-.81-.7-.32-1.35-.71-1.95-1.17a5.579 5.579 0 01-1.41-1.77c-.36-.72-.54-1.62-.54-2.7 0-1.3.31-2.42.93-3.36.64-.94 1.52-1.65 2.64-2.13 1.12-.5 2.41-.75 3.87-.75 1.48 0 2.83.26 4.05.78 1.24.52 2.26 1.23 3.06 2.13l-3.06 3.03c-.64-.66-1.29-1.15-1.95-1.47-.64-.32-1.37-.48-2.19-.48-.82 0-1.47.16-1.95.48-.48.3-.72.74-.72 1.32 0 .54.18.98.54 1.32.36.32.83.6 1.41.84.6.24 1.25.48 1.95.72.72.24 1.43.52 2.13.84.7.32 1.34.73 1.92 1.23.6.48 1.08 1.1 1.441 1.86.359.74.539 1.66.539 2.76 0 2.02-.72 3.61-2.16 4.77-1.44 1.14-3.43 1.71-5.97 1.71zm11.731-.33V.82h4.71V22h-4.71zm3.63 0v-4.14h10.47V22h-10.47zm19.336.33c-1.46 0-2.8-.25-4.02-.75a8.441 8.441 0 01-3.09-2.22l3.03-3.03c.38.56.93 1.02 1.65 1.38.74.34 1.52.51 2.34.51.74 0 1.38-.13 1.92-.39s.96-.63 1.26-1.11c.32-.48.48-1.05.48-1.71 0-.66-.16-1.22-.48-1.68-.3-.48-.75-.85-1.35-1.11-.58-.26-1.28-.39-2.1-.39-.38 0-.78.03-1.2.09-.4.04-.74.11-1.02.21l2.07-2.61a20.3 20.3 0 011.59-.39c.52-.12 1-.18 1.44-.18 1.08 0 2.05.26 2.91.78.86.5 1.54 1.22 2.04 2.16.52.92.78 2.02.78 3.3 0 1.4-.35 2.64-1.05 3.72-.68 1.08-1.64 1.92-2.88 2.52-1.22.6-2.66.9-4.32.9zm-2.58-10.2V9.52l5.16-6.06 5.28-.03-5.37 6.12-5.07 2.58zm-3.21-7.32V.82h13.65v2.61l-3.69 1.38h-9.96z" fill="#fff"/></svg>