<svg width="119" height="18" viewBox="0 0 119 18" fill="none" xmlns="http://www.w3.org/2000/svg"><path d="M3.112 14v-1.72h3.86c1.027 0 1.927-.22 2.7-.66a4.732 4.732 0 001.8-1.86c.44-.787.66-1.693.66-2.72 0-1.013-.22-1.913-.66-2.7a4.734 4.734 0 00-1.82-1.84c-.773-.44-1.666-.66-2.68-.66h-3.84V.12h3.88c1.014 0 1.947.173 2.8.52a6.584 6.584 0 012.24 1.46 6.532 6.532 0 011.48 2.2c.36.84.54 1.76.54 2.76 0 .987-.18 1.907-.54 2.76a6.68 6.68 0 01-1.46 2.2 6.584 6.584 0 01-2.24 1.46c-.853.347-1.78.52-2.78.52h-3.94zm-1.24 0V.12h1.88V14h-1.88zm14.505 0V4.5h1.8V14h-1.8zm.9-11.4c-.333 0-.607-.107-.82-.32a1.18 1.18 0 01-.32-.84c0-.32.107-.587.32-.8.213-.227.487-.34.82-.34.333 0 .607.113.82.34.213.213.32.48.32.8 0 .333-.107.613-.32.84-.213.213-.487.32-.82.32zm6.573 11.6c-.534 0-1.04-.067-1.52-.2a5.501 5.501 0 01-1.3-.6 4.68 4.68 0 01-1.04-.94l1.16-1.16c.346.427.746.747 1.2.96.453.2.96.3 1.52.3s.993-.093 1.3-.28c.306-.2.46-.473.46-.82s-.127-.613-.38-.8c-.24-.2-.554-.36-.94-.48-.387-.133-.8-.26-1.24-.38a7.55 7.55 0 01-1.22-.5 2.718 2.718 0 01-.96-.82c-.24-.347-.36-.807-.36-1.38 0-.573.14-1.067.42-1.48a2.7 2.7 0 011.16-.98c.506-.227 1.113-.34 1.82-.34.746 0 1.406.133 1.98.4.586.253 1.066.64 1.44 1.16l-1.16 1.16a2.665 2.665 0 00-1-.8 3 3 0 00-1.32-.28c-.52 0-.92.093-1.2.28a.832.832 0 00-.4.74c0 .32.12.567.36.74.24.173.553.32.94.44.4.12.813.247 1.24.38.426.12.833.287 1.22.5.386.213.7.5.94.86.253.36.38.833.38 1.42 0 .893-.32 1.6-.96 2.12-.627.52-1.474.78-2.54.78zm9.855 0c-.933 0-1.78-.22-2.54-.66a4.952 4.952 0 01-1.78-1.78 5.06 5.06 0 01-.64-2.52c0-.933.213-1.773.64-2.52a4.797 4.797 0 011.78-1.76c.76-.44 1.607-.66 2.54-.66.733 0 1.413.14 2.04.42a4.42 4.42 0 011.62 1.18l-1.2 1.2a2.747 2.747 0 00-1.08-.78 3.315 3.315 0 00-1.38-.28c-.6 0-1.133.14-1.6.42-.467.267-.833.64-1.1 1.12-.267.48-.4 1.033-.4 1.66s.133 1.18.4 1.66.633.86 1.1 1.14c.467.28 1 .42 1.6.42.507 0 .967-.087 1.38-.26a3.12 3.12 0 001.1-.8l1.18 1.2c-.44.507-.98.9-1.62 1.18-.627.28-1.307.42-2.04.42zm9.61 0c-.934 0-1.774-.22-2.52-.66a4.951 4.951 0 01-1.78-1.78c-.44-.76-.66-1.607-.66-2.54 0-.92.22-1.747.66-2.48a4.951 4.951 0 011.78-1.78c.746-.44 1.586-.66 2.52-.66.92 0 1.753.22 2.5.66a4.753 4.753 0 011.8 1.76c.44.747.66 1.58.66 2.5 0 .933-.22 1.78-.66 2.54a4.904 4.904 0 01-1.8 1.78c-.747.44-1.58.66-2.5.66zm0-1.74c.6 0 1.133-.14 1.6-.42.466-.28.833-.66 1.1-1.14.266-.493.4-1.053.4-1.68 0-.613-.14-1.16-.42-1.64a2.866 2.866 0 00-1.1-1.12c-.454-.28-.98-.42-1.58-.42-.6 0-1.134.14-1.6.42-.467.267-.834.64-1.1 1.12-.267.48-.4 1.027-.4 1.64 0 .627.133 1.187.4 1.68.266.48.633.86 1.1 1.14.466.28 1 .42 1.6.42zM53.21 14l-4.36-9.5h2l3.5 8.02h-1.16l3.52-8.02h1.92L54.27 14h-1.06zm11.003.2c-.947 0-1.8-.213-2.56-.64a4.904 4.904 0 01-1.8-1.78c-.44-.747-.66-1.593-.66-2.54 0-.933.213-1.773.64-2.52a4.843 4.843 0 011.76-1.76c.747-.44 1.58-.66 2.5-.66.88 0 1.654.2 2.32.6.68.4 1.207.953 1.58 1.66.387.707.58 1.507.58 2.4 0 .133-.007.28-.02.44-.013.147-.04.32-.08.52h-8.02v-1.5h7.06l-.66.58c0-.64-.113-1.18-.34-1.62a2.42 2.42 0 00-.96-1.04c-.413-.253-.913-.38-1.5-.38-.613 0-1.153.133-1.62.4-.466.267-.826.64-1.08 1.12-.253.48-.38 1.047-.38 1.7 0 .667.134 1.253.4 1.76.267.493.647.88 1.14 1.16.493.267 1.06.4 1.7.4a3.7 3.7 0 001.46-.28c.453-.187.84-.467 1.16-.84l1.16 1.18a4.411 4.411 0 01-1.68 1.22c-.653.28-1.353.42-2.1.42zm6.323-.2V4.5h1.8V14h-1.8zm1.8-5.42l-.68-.3c0-1.213.28-2.18.84-2.9.56-.72 1.367-1.08 2.42-1.08.48 0 .913.087 1.3.26.386.16.746.433 1.08.82l-1.18 1.22c-.2-.213-.42-.367-.66-.46a2.31 2.31 0 00-.84-.14c-.667 0-1.214.213-1.64.64-.427.427-.64 1.073-.64 1.94zM89.796 14V8.46c0-.72-.227-1.313-.68-1.78-.454-.467-1.04-.7-1.76-.7-.48 0-.907.107-1.28.32a2.323 2.323 0 00-.88.88c-.213.373-.32.8-.32 1.28l-.74-.42c0-.72.16-1.36.48-1.92.32-.56.766-1 1.34-1.32.573-.333 1.22-.5 1.94-.5s1.353.18 1.9.54c.56.36 1 .833 1.32 1.42.32.573.48 1.187.48 1.84V14h-1.8zm-6.72 0V4.5h1.8V14h-1.8zm15.297.2c-.933 0-1.773-.22-2.52-.66a4.951 4.951 0 01-1.78-1.78c-.44-.76-.66-1.607-.66-2.54 0-.92.22-1.747.66-2.48a4.951 4.951 0 011.78-1.78c.747-.44 1.587-.66 2.52-.66.92 0 1.753.22 2.5.66a4.753 4.753 0 011.8 1.76c.44.747.66 1.58.66 2.5 0 .933-.22 1.78-.66 2.54a4.904 4.904 0 01-1.8 1.78c-.747.44-1.58.66-2.5.66zm0-1.74c.6 0 1.133-.14 1.6-.42a3.01 3.01 0 001.1-1.14c.267-.493.4-1.053.4-1.68 0-.613-.14-1.16-.42-1.64a2.866 2.866 0 00-1.1-1.12c-.453-.28-.98-.42-1.58-.42-.6 0-1.133.14-1.6.42-.467.267-.833.64-1.1 1.12-.267.48-.4 1.027-.4 1.64 0 .627.133 1.187.4 1.68.267.48.633.86 1.1 1.14.467.28 1 .42 1.6.42zm9.435 1.54l-3.76-9.5h1.88l2.72 7.4h-.6l2.7-7.4h1.04l2.7 7.4h-.6l2.72-7.4h1.88l-3.74 9.5h-1.06l-2.74-7.18h.66l-2.76 7.18h-1.04zM.232 16.5h118.536v1H.232v-1z" fill="#fff"/></svg>