<svg width="107" height="16" viewBox="0 0 107 16" fill="none" xmlns="http://www.w3.org/2000/svg"><path d="M2.751 12.568V11.02h3.474c.924 0 1.734-.198 2.43-.594a4.26 4.26 0 001.62-1.674c.396-.708.594-1.524.594-2.448 0-.912-.198-1.722-.594-2.43a4.26 4.26 0 00-1.638-1.656c-.696-.396-1.5-.594-2.412-.594H2.77V.076h3.492c.912 0 1.752.156 2.52.468.78.312 1.452.75 2.016 1.314a5.88 5.88 0 011.332 1.98c.324.756.486 1.584.486 2.484 0 .888-.162 1.716-.486 2.484a6.013 6.013 0 01-1.314 1.98A5.927 5.927 0 018.8 12.1a6.585 6.585 0 01-2.502.468H2.751zm-1.116 0V.076h1.692v12.492H1.635zm13.054 0v-8.55h1.62v8.55h-1.62zm.81-10.26a1 1 0 01-.738-.288 1.061 1.061 0 01-.288-.756c0-.288.096-.528.288-.72A.969.969 0 0115.5.238c.3 0 .546.102.738.306a.977.977 0 01.288.72c0 .3-.096.552-.288.756a1 1 0 01-.738.288zm5.916 10.44c-.48 0-.936-.06-1.368-.18a4.95 4.95 0 01-1.17-.54 4.212 4.212 0 01-.936-.846l1.044-1.044c.312.384.672.672 1.08.864.408.18.864.27 1.368.27.504 0 .894-.084 1.17-.252.276-.18.414-.426.414-.738s-.114-.552-.342-.72a2.435 2.435 0 00-.846-.432c-.348-.12-.72-.234-1.116-.342-.384-.12-.75-.27-1.098-.45a2.447 2.447 0 01-.864-.738c-.216-.312-.324-.726-.324-1.242s.126-.96.378-1.332a2.43 2.43 0 011.044-.882c.456-.204 1.002-.306 1.638-.306.672 0 1.266.12 1.782.36.528.228.96.576 1.296 1.044L23.52 6.286a2.398 2.398 0 00-.9-.72 2.7 2.7 0 00-1.188-.252c-.468 0-.828.084-1.08.252a.749.749 0 00-.36.666c0 .288.108.51.324.666.216.156.498.288.846.396.36.108.732.222 1.116.342.384.108.75.258 1.098.45.348.192.63.45.846.774.228.324.342.75.342 1.278 0 .804-.288 1.44-.864 1.908-.564.468-1.326.702-2.286.702zm8.87 0a4.48 4.48 0 01-2.287-.594 4.457 4.457 0 01-1.602-1.602 4.553 4.553 0 01-.576-2.268c0-.84.192-1.596.576-2.268.396-.672.93-1.2 1.602-1.584a4.48 4.48 0 012.286-.594c.66 0 1.272.126 1.836.378a3.98 3.98 0 011.458 1.062l-1.08 1.08a2.473 2.473 0 00-.972-.702 2.984 2.984 0 00-1.242-.252c-.54 0-1.02.126-1.44.378-.42.24-.75.576-.99 1.008-.24.432-.36.93-.36 1.494s.12 1.062.36 1.494c.24.432.57.774.99 1.026.42.252.9.378 1.44.378.456 0 .87-.078 1.242-.234.384-.168.714-.408.99-.72l1.062 1.08c-.396.456-.882.81-1.458 1.062a4.449 4.449 0 01-1.836.378zm8.648 0c-.84 0-1.596-.198-2.268-.594a4.457 4.457 0 01-1.602-1.602 4.48 4.48 0 01-.594-2.286c0-.828.198-1.572.594-2.232a4.457 4.457 0 011.602-1.602c.672-.396 1.428-.594 2.268-.594.828 0 1.578.198 2.25.594a4.278 4.278 0 011.62 1.584c.396.672.594 1.422.594 2.25a4.48 4.48 0 01-.594 2.286 4.414 4.414 0 01-1.62 1.602 4.349 4.349 0 01-2.25.594zm0-1.566c.54 0 1.02-.126 1.44-.378.42-.252.75-.594.99-1.026.24-.444.36-.948.36-1.512 0-.552-.126-1.044-.378-1.476a2.58 2.58 0 00-.99-1.008c-.408-.252-.882-.378-1.422-.378-.54 0-1.02.126-1.44.378-.42.24-.75.576-.99 1.008-.24.432-.36.924-.36 1.476 0 .564.12 1.068.36 1.512.24.432.57.774.99 1.026.42.252.9.378 1.44.378zm8.907 1.386l-3.924-8.55h1.8l3.15 7.218h-1.044l3.168-7.218h1.728l-3.924 8.55h-.954zm9.903.18c-.852 0-1.62-.192-2.304-.576a4.414 4.414 0 01-1.62-1.602c-.396-.672-.594-1.434-.594-2.286 0-.84.192-1.596.576-2.268.396-.672.924-1.2 1.584-1.584a4.349 4.349 0 012.25-.594c.792 0 1.488.18 2.088.54.612.36 1.086.858 1.422 1.494.348.636.522 1.356.522 2.16 0 .12-.006.252-.018.396a4.524 4.524 0 01-.072.468h-7.218v-1.35h6.354l-.594.522c0-.576-.102-1.062-.306-1.458a2.18 2.18 0 00-.864-.936c-.372-.228-.822-.342-1.35-.342-.552 0-1.038.12-1.458.36-.42.24-.744.576-.972 1.008-.228.432-.342.942-.342 1.53 0 .6.12 1.128.36 1.584.24.444.582.792 1.026 1.044.444.24.954.36 1.53.36.48 0 .918-.084 1.314-.252.408-.168.756-.42 1.044-.756l1.044 1.062a3.97 3.97 0 01-1.512 1.098 4.747 4.747 0 01-1.89.378zm5.69-.18v-8.55h1.62v8.55h-1.62zm1.62-4.878l-.612-.27c0-1.092.252-1.962.756-2.61.504-.648 1.23-.972 2.178-.972.432 0 .822.078 1.17.234.348.144.672.39.972.738l-1.062 1.098a1.62 1.62 0 00-.594-.414 2.08 2.08 0 00-.756-.126c-.6 0-1.092.192-1.476.576-.384.384-.576.966-.576 1.746zm15.713 4.878V7.582c0-.648-.204-1.182-.612-1.602-.408-.42-.936-.63-1.584-.63a2.28 2.28 0 00-1.152.288c-.336.192-.6.456-.792.792a2.28 2.28 0 00-.288 1.152l-.666-.378c0-.648.144-1.224.432-1.728.288-.504.69-.9 1.206-1.188a3.41 3.41 0 011.746-.45c.648 0 1.218.162 1.71.486.504.324.9.75 1.188 1.278.288.516.432 1.068.432 1.656v5.31h-1.62zm-6.048 0v-8.55h1.62v8.55h-1.62zm13.768.18c-.84 0-1.596-.198-2.268-.594a4.457 4.457 0 01-1.602-1.602 4.48 4.48 0 01-.594-2.286c0-.828.198-1.572.594-2.232a4.457 4.457 0 011.602-1.602c.672-.396 1.428-.594 2.268-.594.828 0 1.578.198 2.25.594a4.278 4.278 0 011.62 1.584c.396.672.594 1.422.594 2.25a4.48 4.48 0 01-.594 2.286 4.414 4.414 0 01-1.62 1.602 4.349 4.349 0 01-2.25.594zm0-1.566c.54 0 1.02-.126 1.44-.378.42-.252.75-.594.99-1.026.24-.444.36-.948.36-1.512 0-.552-.126-1.044-.378-1.476a2.58 2.58 0 00-.99-1.008c-.408-.252-.882-.378-1.422-.378-.54 0-1.02.126-1.44.378-.42.24-.75.576-.99 1.008-.24.432-.36.924-.36 1.476 0 .564.12 1.068.36 1.512.24.432.57.774.99 1.026.42.252.9.378 1.44.378zm8.49 1.386l-3.383-8.55h1.692l2.448 6.66h-.54l2.43-6.66h.936l2.43 6.66h-.54l2.448-6.66h1.692l-3.366 8.55h-.954l-2.466-6.462h.594l-2.484 6.462h-.936zM.16 14.818H106.84v.9H.159v-.9z" fill="#fff"/></svg>