<svg width="209" height="17" viewBox="0 0 209 17" fill="none" xmlns="http://www.w3.org/2000/svg"><path d="M7.8 16.22a7.73 7.73 0 01-3.036-.594 7.305 7.305 0 01-2.42-1.672 7.793 7.793 0 01-1.606-2.486 8.445 8.445 0 01-.55-3.058 8.27 8.27 0 01.55-3.036 7.665 7.665 0 011.584-2.486A7.468 7.468 0 017.734.644c1.159 0 2.193.205 3.102.616a7.59 7.59 0 012.42 1.694l-1.1 1.1a5.437 5.437 0 00-1.914-1.364c-.748-.337-1.584-.506-2.508-.506-.85 0-1.635.154-2.354.462a5.715 5.715 0 00-1.87 1.32 5.947 5.947 0 00-1.232 1.98c-.279.748-.418 1.57-.418 2.464 0 .895.147 1.723.44 2.486a6.2 6.2 0 001.232 2.002c.528.557 1.151.99 1.87 1.298a5.913 5.913 0 002.354.462c.968 0 1.826-.169 2.574-.506a5.63 5.63 0 001.936-1.386l1.1 1.122a7.556 7.556 0 01-2.42 1.716c-.939.41-1.987.616-3.146.616zm8.456-.22V5.66h1.54V16h-1.54zm1.54-6.028l-.638-.286c0-1.305.315-2.34.946-3.102.645-.763 1.525-1.144 2.64-1.144.513 0 .983.095 1.408.286.425.176.821.462 1.188.858l-1.012 1.078a2.147 2.147 0 00-.836-.594 2.71 2.71 0 00-1.012-.176c-.792 0-1.437.264-1.936.792-.499.513-.748 1.276-.748 2.288zM29.54 16.22c-.982 0-1.862-.235-2.64-.704a5.32 5.32 0 01-1.848-1.936c-.44-.807-.66-1.716-.66-2.728 0-1.027.22-1.943.66-2.75a5.101 5.101 0 011.848-1.936c.778-.484 1.65-.726 2.618-.726.792 0 1.496.161 2.112.484.631.308 1.137.748 1.518 1.32.396.557.638 1.21.726 1.958v3.234a4.302 4.302 0 01-.726 1.98 3.954 3.954 0 01-1.518 1.342c-.616.308-1.312.462-2.09.462zm.242-1.474c1.071 0 1.929-.36 2.574-1.078.66-.719.99-1.665.99-2.838 0-.777-.154-1.46-.462-2.046a3.2 3.2 0 00-1.254-1.386c-.528-.337-1.151-.506-1.87-.506-.733 0-1.386.169-1.958.506a3.758 3.758 0 00-1.342 1.408c-.322.587-.484 1.261-.484 2.024 0 .763.162 1.437.484 2.024a3.748 3.748 0 001.364 1.386c.572.337 1.225.506 1.958.506zM33.26 16v-2.772l.308-2.552-.308-2.486V5.66h1.54V16h-1.54zm6.535 0V3.9c0-.719.155-1.357.463-1.914.322-.557.762-.99 1.32-1.298.572-.323 1.217-.484 1.936-.484.557 0 1.048.103 1.474.308.425.19.813.462 1.166.814L45.14 2.338a2.18 2.18 0 00-.748-.506 2.048 2.048 0 00-.88-.176c-.69 0-1.225.205-1.606.616-.367.396-.55.953-.55 1.672V16h-1.563zM37.2 7.046V5.66h7.611v1.386H37.2zM48.379 16V1.304h1.54V16h-1.54zm-2.618-8.954V5.66h6.754v1.386h-6.754zm13.724 9.174c-1.041 0-1.972-.235-2.794-.704a5.276 5.276 0 01-1.958-1.936c-.47-.821-.704-1.745-.704-2.772 0-1.012.235-1.921.704-2.728a5.161 5.161 0 011.914-1.936c.807-.47 1.709-.704 2.706-.704.939 0 1.768.213 2.486.638a4.46 4.46 0 011.716 1.782c.426.748.638 1.613.638 2.596 0 .117-.007.257-.022.418a4.897 4.897 0 01-.088.528H55.13v-1.32h8.118l-.55.484c.015-.763-.117-1.415-.396-1.958a2.817 2.817 0 00-1.166-1.276c-.498-.308-1.107-.462-1.826-.462-.748 0-1.4.161-1.958.484a3.476 3.476 0 00-1.32 1.364c-.308.572-.462 1.254-.462 2.046 0 .792.162 1.489.484 2.09.338.601.8 1.07 1.386 1.408.602.337 1.29.506 2.068.506.63 0 1.21-.11 1.738-.33.528-.235.976-.58 1.342-1.034l.99 1.012a5.018 5.018 0 01-1.804 1.342 5.645 5.645 0 01-2.288.462zm11.904 0c-.953 0-1.811-.235-2.574-.704a5.203 5.203 0 01-1.826-1.914c-.44-.821-.66-1.738-.66-2.75 0-1.027.22-1.943.66-2.75a5.157 5.157 0 011.826-1.936c.763-.484 1.62-.726 2.574-.726.777 0 1.481.154 2.112.462.63.308 1.151.748 1.562 1.32.425.557.675 1.217.748 1.98v3.234a4.169 4.169 0 01-.748 1.98c-.396.557-.91.997-1.54 1.32-.63.323-1.342.484-2.134.484zm.264-1.474c.719 0 1.35-.161 1.892-.484.543-.337.968-.8 1.276-1.386.308-.601.462-1.283.462-2.046 0-.777-.161-1.46-.484-2.046a3.528 3.528 0 00-1.276-1.386c-.543-.337-1.173-.506-1.892-.506-.719 0-1.357.169-1.914.506a3.596 3.596 0 00-1.32 1.408c-.308.587-.462 1.261-.462 2.024 0 .763.154 1.445.462 2.046a3.636 3.636 0 001.32 1.386c.572.323 1.217.484 1.936.484zM76.735 16h-1.54v-2.772l.308-2.552-.308-2.486V.424h1.54V16zm10.248 0V3.9c0-.719.154-1.357.462-1.914.323-.557.763-.99 1.32-1.298.572-.323 1.217-.484 1.936-.484.557 0 1.049.103 1.474.308a3.9 3.9 0 011.166.814l-1.012 1.012a2.182 2.182 0 00-.748-.506 2.048 2.048 0 00-.88-.176c-.69 0-1.225.205-1.606.616-.367.396-.55.953-.55 1.672V16h-1.562zm-2.596-8.954V5.66h7.612v1.386h-7.612zm14.196 9.174a5.274 5.274 0 01-2.728-.726 5.504 5.504 0 01-1.936-1.958c-.47-.821-.704-1.738-.704-2.75 0-.997.235-1.9.704-2.706a5.38 5.38 0 011.936-1.914 5.274 5.274 0 012.728-.726c1.012 0 1.921.235 2.728.704a5.156 5.156 0 011.914 1.936c.484.807.726 1.709.726 2.706 0 1.027-.242 1.95-.726 2.772a5.375 5.375 0 01-1.914 1.936c-.807.484-1.716.726-2.728.726zm0-1.496c.733 0 1.379-.169 1.936-.506a3.548 3.548 0 001.342-1.408c.337-.601.506-1.276.506-2.024s-.169-1.408-.506-1.98a3.587 3.587 0 00-1.342-1.386c-.557-.337-1.203-.506-1.936-.506-.719 0-1.364.169-1.936.506-.572.337-1.02.8-1.342 1.386-.323.572-.484 1.232-.484 1.98 0 .763.161 1.445.484 2.046.323.587.77 1.049 1.342 1.386.572.337 1.217.506 1.936.506zM106.841 16V5.66h1.54V16h-1.54zm1.54-6.028l-.638-.286c0-1.305.315-2.34.946-3.102.645-.763 1.525-1.144 2.64-1.144.513 0 .983.095 1.408.286.425.176.821.462 1.188.858l-1.012 1.078a2.145 2.145 0 00-.836-.594 2.71 2.71 0 00-1.012-.176c-.792 0-1.437.264-1.936.792-.499.513-.748 1.276-.748 2.288zm20.414 6.248a7.732 7.732 0 01-3.036-.594 7.301 7.301 0 01-2.42-1.672 7.793 7.793 0 01-1.606-2.486 8.438 8.438 0 01-.55-3.058c0-1.085.183-2.097.55-3.036a7.654 7.654 0 011.584-2.486 7.464 7.464 0 015.412-2.244c1.159 0 2.193.205 3.102.616.924.41 1.731.975 2.42 1.694l-1.1 1.1a5.437 5.437 0 00-1.914-1.364c-.748-.337-1.584-.506-2.508-.506-.851 0-1.635.154-2.354.462a5.718 5.718 0 00-1.87 1.32 5.942 5.942 0 00-1.232 1.98c-.279.748-.418 1.57-.418 2.464 0 .895.147 1.723.44 2.486.293.763.704 1.43 1.232 2.002.528.557 1.151.99 1.87 1.298a5.913 5.913 0 002.354.462c.968 0 1.826-.169 2.574-.506a5.627 5.627 0 001.936-1.386l1.1 1.122a7.556 7.556 0 01-2.42 1.716c-.939.41-1.987.616-3.146.616zm8.456-.22V5.66h1.54V16h-1.54zm1.54-6.028l-.638-.286c0-1.305.315-2.34.946-3.102.645-.763 1.525-1.144 2.64-1.144.513 0 .982.095 1.408.286.425.176.821.462 1.188.858l-1.012 1.078a2.152 2.152 0 00-.836-.594 2.713 2.713 0 00-1.012-.176c-.792 0-1.438.264-1.936.792-.499.513-.748 1.276-.748 2.288zm12.031 6.248c-1.041 0-1.972-.235-2.794-.704a5.278 5.278 0 01-1.958-1.936c-.469-.821-.704-1.745-.704-2.772 0-1.012.235-1.921.704-2.728a5.17 5.17 0 011.914-1.936c.807-.47 1.709-.704 2.706-.704.939 0 1.768.213 2.486.638a4.452 4.452 0 011.716 1.782c.426.748.638 1.613.638 2.596 0 .117-.007.257-.022.418a4.752 4.752 0 01-.088.528h-8.954v-1.32h8.118l-.55.484c.015-.763-.117-1.415-.396-1.958a2.814 2.814 0 00-1.166-1.276c-.498-.308-1.107-.462-1.826-.462-.748 0-1.4.161-1.958.484a3.48 3.48 0 00-1.32 1.364c-.308.572-.462 1.254-.462 2.046 0 .792.162 1.489.484 2.09.338.601.8 1.07 1.386 1.408.602.337 1.291.506 2.068.506.631 0 1.21-.11 1.738-.33.528-.235.976-.58 1.342-1.034l.99 1.012a5.015 5.015 0 01-1.804 1.342 5.643 5.643 0 01-2.288.462zm11.992 0c-.983 0-1.863-.235-2.64-.704a5.325 5.325 0 01-1.848-1.936c-.44-.807-.66-1.716-.66-2.728 0-1.027.22-1.943.66-2.75a5.105 5.105 0 011.848-1.936c.777-.484 1.65-.726 2.618-.726.792 0 1.496.161 2.112.484a3.781 3.781 0 011.518 1.32c.396.557.638 1.21.726 1.958v3.234a4.302 4.302 0 01-.726 1.98 3.95 3.95 0 01-1.518 1.342c-.616.308-1.313.462-2.09.462zm.242-1.474c1.071 0 1.929-.36 2.574-1.078.66-.719.99-1.665.99-2.838 0-.777-.154-1.46-.462-2.046a3.197 3.197 0 00-1.254-1.386c-.528-.337-1.151-.506-1.87-.506-.733 0-1.386.169-1.958.506a3.757 3.757 0 00-1.342 1.408c-.323.587-.484 1.261-.484 2.024 0 .763.161 1.437.484 2.024a3.745 3.745 0 001.364 1.386c.572.337 1.225.506 1.958.506zM166.532 16v-2.772l.308-2.552-.308-2.486V5.66h1.54V16h-1.54zm6.623 0V1.304h1.54V16h-1.54zm-2.618-8.954V5.66h6.754v1.386h-6.754zm13.636 9.174a5.276 5.276 0 01-2.728-.726 5.51 5.51 0 01-1.936-1.958c-.469-.821-.704-1.738-.704-2.75 0-.997.235-1.9.704-2.706a5.386 5.386 0 011.936-1.914 5.276 5.276 0 012.728-.726c1.012 0 1.922.235 2.728.704a5.156 5.156 0 011.914 1.936c.484.807.726 1.709.726 2.706 0 1.027-.242 1.95-.726 2.772a5.375 5.375 0 01-1.914 1.936c-.806.484-1.716.726-2.728.726zm0-1.496c.734 0 1.379-.169 1.936-.506a3.541 3.541 0 001.342-1.408c.338-.601.506-1.276.506-2.024s-.168-1.408-.506-1.98a3.58 3.58 0 00-1.342-1.386c-.557-.337-1.202-.506-1.936-.506-.718 0-1.364.169-1.936.506-.572.337-1.019.8-1.342 1.386-.322.572-.484 1.232-.484 1.98 0 .763.162 1.445.484 2.046.323.587.77 1.049 1.342 1.386.572.337 1.218.506 1.936.506zM192.431 16V5.66h1.54V16h-1.54zm1.54-6.028l-.638-.286c0-1.305.316-2.34.946-3.102.646-.763 1.526-1.144 2.64-1.144a3.4 3.4 0 011.408.286c.426.176.822.462 1.188.858l-1.012 1.078a2.145 2.145 0 00-.836-.594 2.706 2.706 0 00-1.012-.176c-.792 0-1.437.264-1.936.792-.498.513-.748 1.276-.748 2.288zm10.555 6.248a5.81 5.81 0 01-1.606-.22 5.62 5.62 0 01-1.408-.66 4.944 4.944 0 01-1.078-.99l.99-1.012c.41.499.872.873 1.386 1.122a4.284 4.284 0 001.76.352c.689 0 1.224-.132 1.606-.396.396-.264.594-.63.594-1.1 0-.44-.14-.785-.418-1.034-.279-.25-.638-.447-1.078-.594a21.84 21.84 0 00-1.364-.418 10.424 10.424 0 01-1.386-.528c-.44-.22-.8-.52-1.078-.902-.264-.381-.396-.88-.396-1.496 0-.587.139-1.093.418-1.518.293-.44.704-.777 1.232-1.012.542-.25 1.18-.374 1.914-.374.777 0 1.481.14 2.112.418.63.279 1.136.69 1.518 1.232l-.99.99a2.952 2.952 0 00-1.166-.902 3.492 3.492 0 00-1.54-.33c-.66 0-1.166.132-1.518.396a1.17 1.17 0 00-.506.99c0 .396.139.711.418.946.278.22.63.403 1.056.55l1.386.418c.484.132.946.315 1.386.55.44.22.792.528 1.056.924.278.381.418.902.418 1.562 0 .924-.338 1.665-1.012 2.222-.66.543-1.562.814-2.706.814z" fill="#fff"/></svg>