<svg width="123" height="20" viewBox="0 0 123 20" fill="none" xmlns="http://www.w3.org/2000/svg"><path d="M.185 19V.722H3.72V19H.185zm2.6 0v-3.146h9.308V19H2.785zm12.367 0V.722h3.536V19h-3.536zm2.6 0v-3.12h10.114V19H17.752zm0-7.826V8.158h9.204v3.016h-9.204zm0-7.332V.722h9.984v3.12h-9.984zM31.312 19V.722h3.537V19h-3.536zm16.284.26c-1.335 0-2.574-.234-3.718-.702a9.65 9.65 0 01-3.016-2.002 9.29 9.29 0 01-1.976-3.016c-.451-1.144-.676-2.375-.676-3.692 0-1.317.225-2.548.676-3.692a8.997 8.997 0 011.976-2.99 9.736 9.736 0 012.99-2.002c1.144-.485 2.392-.728 3.744-.728 1.456 0 2.738.243 3.848.728a9.356 9.356 0 012.938 1.95L51.99 5.506a5.239 5.239 0 00-1.846-1.3c-.728-.312-1.578-.468-2.548-.468-.85 0-1.63.147-2.34.442-.694.277-1.3.693-1.82 1.248a5.43 5.43 0 00-1.196 1.95c-.278.745-.416 1.569-.416 2.47 0 .919.138 1.75.416 2.496a5.747 5.747 0 001.196 1.95 5.5 5.5 0 001.82 1.248 6.05 6.05 0 002.34.442c1.022 0 1.898-.156 2.626-.468a5.043 5.043 0 001.872-1.326l2.392 2.392a9.069 9.069 0 01-2.964 1.976c-1.127.468-2.436.702-3.926.702zm8.059-.26L63.013.722h2.886L73.23 19h-3.77L63.793 3.998h1.3L59.347 19h-3.692zm3.9-3.406V12.63h9.828v2.964h-9.828zm26.723 3.666c-1.473 0-2.738-.251-3.796-.754-1.04-.503-1.984-1.257-2.834-2.262l2.34-2.34c.538.71 1.162 1.265 1.873 1.664.71.381 1.577.572 2.6.572.918 0 1.646-.182 2.183-.546.555-.364.832-.867.832-1.508 0-.555-.156-1.005-.468-1.352-.311-.347-.727-.641-1.248-.884a11.868 11.868 0 00-1.69-.65 30.627 30.627 0 01-1.845-.702 8.525 8.525 0 01-1.69-.962 4.55 4.55 0 01-1.222-1.508c-.313-.624-.469-1.404-.469-2.34 0-1.11.27-2.054.806-2.834.538-.78 1.274-1.378 2.21-1.794.936-.416 1.994-.624 3.172-.624 1.249 0 2.375.234 3.38.702 1.006.468 1.83 1.075 2.47 1.82l-2.34 2.34c-.537-.59-1.091-1.023-1.663-1.3-.555-.277-1.188-.416-1.898-.416-.815 0-1.456.156-1.924.468-.469.312-.703.763-.703 1.352 0 .503.156.91.469 1.222.312.312.719.58 1.222.806.52.225 1.083.442 1.69.65.624.208 1.239.442 1.846.702.623.26 1.187.598 1.69 1.014.52.416.936.953 1.248 1.612.311.641.468 1.439.468 2.392 0 1.699-.599 3.033-1.794 4.004-1.197.97-2.834 1.456-4.915 1.456zm10.02-.26V.722h3.535V19h-3.536zm2.6 0v-3.146h9.307V19h-9.308zm16.969.26c-1.231 0-2.358-.217-3.38-.65a6.938 6.938 0 01-2.574-1.924l2.34-2.314c.346.52.84.936 1.482 1.248a4.688 4.688 0 002.08.468c.693 0 1.291-.121 1.794-.364.502-.26.892-.615 1.17-1.066.294-.468.442-1.005.442-1.612 0-.641-.148-1.187-.442-1.638-.278-.45-.685-.797-1.222-1.04-.538-.243-1.179-.364-1.924-.364-.33 0-.668.026-1.014.078a3.757 3.757 0 00-.884.182l1.56-1.976c.433-.139.858-.251 1.274-.338a5.152 5.152 0 011.196-.156c.936 0 1.776.225 2.522.676.762.433 1.36 1.057 1.794 1.872.45.797.676 1.742.676 2.834 0 1.213-.286 2.28-.858 3.198-.572.901-1.378 1.612-2.418 2.132-1.023.503-2.228.754-3.614.754zm-2.132-8.996V8.236l4.68-5.434 4.056-.052-4.836 5.538-3.9 1.976zm-2.808-6.474V.722h11.544V2.75l-2.886 1.04h-8.658z" fill="#fff"/></svg>