<svg width="48" height="48" viewBox="0 0 48 48" fill="none" xmlns="http://www.w3.org/2000/svg"><path d="M24 48c13.27 0 24-10.751 24-23.986C48 10.751 37.242 0 24 0 10.73 0 0 10.751 0 24.014 0 37.25 10.758 48 24 48z" fill="#E30613"/><path d="M43.736 25.369s-.62.451-1.072.451c-.34 0-.537-.282-.537-.593 0-.705 1.101-4.12 1.101-4.12l-2.654.029-.141.451s-.395-.79-1.779-.79c-2.71 0-4.179 2.342-4.263 3.697-.029.31-.029.338-.029.338-.056.085-1.016 1.157-2.202 1.157-.932 0-1.101-.79-1.101-1.298 0-.536.452-2.709 1.722-2.709.706 0 1.13.593 1.13.593l.367-1.242s-.593-.451-1.807-.48c-2.626 0-4.405 1.948-4.462 3.725-.028.254-.028.339-.028.367-.085.113-.734.847-1.581.847-.565 0-.565-.452-.565-.65 0-.253 1.13-4.12 1.13-4.12l-2.909.17-1.044 3.725s-1.61 1.185-3.897 1.326c-1.157.085-1.58-.62-1.58-1.044v-.17s.48.03.818.03c.282 0 3.727-.227 3.727-2.343 0-1.213-1.214-1.665-2.739-1.665-2.823 0-4.8 1.75-4.8 3.838 0 1.89 1.61 2.709 3.699 2.709 2.372 0 4.687-1.44 4.687-1.44s.141 1.44 2.005 1.44c1.92 0 3.445-1.44 3.445-1.44s.847 1.383 2.767 1.383c1.948 0 3.473-1.58 3.473-1.58s.536 1.496 2.456 1.496c1.525 0 2.343-.988 2.343-.988s.424.988 1.751.988c1.61 0 2.824-1.129 2.824-1.129l-.255-.96zm-24.254-3.471c.396.028.678.31.65.592-.057 1.89-2.372 1.58-2.372 1.58s.367-2.257 1.722-2.172zm18.607 4.148c-.734 0-.734-.79-.734-1.044 0-.621.48-3.048 1.807-3.048a.84.84 0 01.847.818c0 .085-.338 3.274-1.92 3.274z" fill="#fff"/><path d="M44.245 27.908s-6.212 2.173-18.07 2.032c-8.19-.085-14.43-2.512-14.43-2.512s.199-.395.34-.649c.818-1.664 1.778-5.05 1.778-5.05s5.62-1.58 5.62-6.04c0-1.41-1.328-2.313-2.598-2.37-4.518-.17-5.789 6.265-6.07 7.365-.03.085-.03.113-.03.113-1.41-.197-2.201-.48-2.201-.48l-.311.875c.932.452 2.315.593 2.315.593-.282 1.721-1.61 4.994-1.61 4.994s-1.242-.395-2.766-.395c-2.005 0-2.683.96-2.739 1.552-.141 1.552 1.807 2.258 3.162 2.258 2.626 0 4.01-1.44 4.01-1.44s7.426 2.794 15.19 2.794c10.137 0 18.692-2.708 18.692-2.708l-.282-.932zM17.11 14.561c.875 0 1.157.705 1.072 1.354-.423 3.725-4.122 4.572-4.122 4.572s.932-5.926 3.05-5.926zM6.099 28.952c-.734.029-1.243-.48-1.243-.762 0-.62.763-.705 1.243-.677a7.457 7.457 0 012.146.452s-1.186.96-2.146.987z" fill="#fff"/><path d="M26.118 17.637c-.932 0-1.638.395-1.638 1.27 0 .903.79 1.128 1.638 1.128.847 0 1.609-.395 1.609-1.298 0-.931-.932-1.1-1.61-1.1z" fill="#fff"/></svg>