<svg width="190" height="46" viewBox="0 0 190 46" fill="none" xmlns="http://www.w3.org/2000/svg"><path d="M.872 19V.722h3.536V19H.872zm2.6 0v-3.146h9.308V19H3.472zm12.367 0V.722h3.536V19H15.84zm2.6 0v-3.12h10.114V19H18.44zm0-7.826V8.158h9.204v3.016H18.44zm0-7.332V.722h9.984v3.12H18.44zM32 19V.722h3.537V19H32zm16.284.26c-1.335 0-2.574-.234-3.718-.702a9.651 9.651 0 01-3.016-2.002 9.29 9.29 0 01-1.976-3.016c-.45-1.144-.676-2.375-.676-3.692 0-1.317.225-2.548.676-3.692a8.999 8.999 0 011.976-2.99 9.737 9.737 0 012.99-2.002c1.144-.485 2.392-.728 3.744-.728 1.456 0 2.739.243 3.848.728a9.355 9.355 0 012.938 1.95l-2.392 2.392a5.239 5.239 0 00-1.846-1.3c-.728-.312-1.577-.468-2.548-.468-.85 0-1.63.147-2.34.442a5.03 5.03 0 00-1.82 1.248 5.43 5.43 0 00-1.196 1.95c-.277.745-.416 1.569-.416 2.47 0 .919.139 1.75.416 2.496a5.747 5.747 0 001.196 1.95c.52.537 1.127.953 1.82 1.248a6.05 6.05 0 002.34.442c1.023 0 1.898-.156 2.626-.468a5.043 5.043 0 001.872-1.326l2.392 2.392a9.066 9.066 0 01-2.964 1.976c-1.127.468-2.435.702-3.926.702zm8.06-.26L63.7.722h2.886L73.918 19h-3.77L64.48 3.998h1.3L60.034 19h-3.692zm3.9-3.406V12.63h9.827v2.964h-9.828zm26.723 3.666c-1.473 0-2.739-.251-3.796-.754-1.04-.503-1.985-1.257-2.834-2.262l2.34-2.34c.537.71 1.161 1.265 1.872 1.664.71.381 1.577.572 2.6.572.919 0 1.647-.182 2.184-.546.555-.364.832-.867.832-1.508 0-.555-.156-1.005-.468-1.352-.312-.347-.728-.641-1.248-.884a11.863 11.863 0 00-1.69-.65 30.653 30.653 0 01-1.846-.702 8.528 8.528 0 01-1.69-.962A4.552 4.552 0 0182 8.028c-.312-.624-.468-1.404-.468-2.34 0-1.11.269-2.054.806-2.834.537-.78 1.274-1.378 2.21-1.794.936-.416 1.993-.624 3.172-.624 1.248 0 2.375.234 3.38.702 1.005.468 1.829 1.075 2.47 1.82l-2.34 2.34c-.537-.59-1.092-1.023-1.664-1.3-.555-.277-1.187-.416-1.898-.416-.815 0-1.456.156-1.924.468-.468.312-.702.763-.702 1.352 0 .503.156.91.468 1.222.312.312.72.58 1.222.806.52.225 1.083.442 1.69.65.624.208 1.24.442 1.846.702.624.26 1.187.598 1.69 1.014.52.416.936.953 1.248 1.612.312.641.468 1.439.468 2.392 0 1.699-.598 3.033-1.794 4.004-1.196.97-2.834 1.456-4.914 1.456zM96.985 19V.722h3.536V19h-3.536zm2.6 0v-3.146h9.308V19h-9.308zm16.969.26c-1.231 0-2.357-.217-3.38-.65a6.938 6.938 0 01-2.574-1.924l2.34-2.314c.347.52.841.936 1.482 1.248a4.691 4.691 0 002.08.468c.693 0 1.291-.121 1.794-.364.503-.26.893-.615 1.17-1.066.295-.468.442-1.005.442-1.612 0-.641-.147-1.187-.442-1.638-.277-.45-.685-.797-1.222-1.04-.537-.243-1.179-.364-1.924-.364a6.84 6.84 0 00-1.014.078 3.768 3.768 0 00-.884.182l1.56-1.976c.433-.139.858-.251 1.274-.338a5.152 5.152 0 011.196-.156c.936 0 1.777.225 2.522.676.763.433 1.361 1.057 1.794 1.872.451.797.676 1.742.676 2.834 0 1.213-.286 2.28-.858 3.198-.572.901-1.378 1.612-2.418 2.132-1.023.503-2.227.754-3.614.754zm-2.132-8.996V8.236l4.68-5.434 4.056-.052-4.836 5.538-3.9 1.976zm-2.808-6.474V.722h11.544V2.75l-2.886 1.04h-8.658zM7 45.2c-.987 0-1.907-.18-2.76-.54a6.642 6.642 0 01-2.2-1.52 7.085 7.085 0 01-1.46-2.26 7.677 7.677 0 01-.5-2.78c0-.987.167-1.907.5-2.76a6.968 6.968 0 011.44-2.26 6.789 6.789 0 014.92-2.04c1.053 0 1.993.187 2.82.56a6.9 6.9 0 012.2 1.54l-1 1a4.943 4.943 0 00-1.74-1.24c-.68-.307-1.44-.46-2.28-.46-.773 0-1.487.14-2.14.42-.64.28-1.207.68-1.7 1.2a5.407 5.407 0 00-1.12 1.8 6.37 6.37 0 00-.38 2.24c0 .813.133 1.567.4 2.26.267.693.64 1.3 1.12 1.82.48.507 1.047.9 1.7 1.18.653.28 1.367.42 2.14.42.88 0 1.66-.153 2.34-.46a5.12 5.12 0 001.76-1.26l1 1.02a6.87 6.87 0 01-2.2 1.56c-.853.373-1.807.56-2.86.56zm7.687-.2v-9.4h1.4V45h-1.4zm1.4-5.48l-.58-.26c0-1.187.287-2.127.86-2.82.587-.693 1.387-1.04 2.4-1.04.467 0 .893.087 1.28.26.387.16.747.42 1.08.78l-.92.98a1.953 1.953 0 00-.76-.54 2.463 2.463 0 00-.92-.16c-.72 0-1.306.24-1.76.72-.453.467-.68 1.16-.68 2.08zm10.678 5.68c-.893 0-1.694-.213-2.4-.64a4.837 4.837 0 01-1.68-1.76c-.4-.733-.6-1.56-.6-2.48 0-.933.2-1.767.6-2.5a4.638 4.638 0 011.68-1.76c.707-.44 1.5-.66 2.38-.66.72 0 1.36.147 1.92.44a3.44 3.44 0 011.38 1.2c.36.507.58 1.1.66 1.78v2.94c-.08.68-.3 1.28-.66 1.8-.347.52-.807.927-1.38 1.22-.56.28-1.194.42-1.9.42zm.22-1.34c.973 0 1.753-.327 2.34-.98.6-.653.9-1.513.9-2.58 0-.707-.14-1.327-.42-1.86a2.908 2.908 0 00-1.14-1.26c-.48-.307-1.047-.46-1.7-.46-.667 0-1.26.153-1.78.46a3.416 3.416 0 00-1.22 1.28c-.293.533-.44 1.147-.44 1.84 0 .693.147 1.307.44 1.84.306.533.72.953 1.24 1.26.52.307 1.113.46 1.78.46zm3.16 1.14v-2.52l.28-2.32-.28-2.26v-2.3h1.4V45h-1.4zm5.94 0V34c0-.653.14-1.233.42-1.74.294-.507.694-.9 1.2-1.18a3.52 3.52 0 011.76-.44c.508 0 .954.093 1.34.28.388.173.74.42 1.06.74l-.92.92a1.983 1.983 0 00-.68-.46 1.861 1.861 0 00-.8-.16c-.626 0-1.112.187-1.46.56-.332.36-.5.867-.5 1.52V45h-1.42zm-2.36-8.14V35.6h6.92v1.26h-6.92zM43.89 45V31.64h1.4V45h-1.4zm-2.38-8.14V35.6h6.14v1.26h-6.14zm12.477 8.34c-.947 0-1.794-.213-2.54-.64a4.796 4.796 0 01-1.78-1.76c-.427-.747-.64-1.587-.64-2.52 0-.92.213-1.747.64-2.48a4.69 4.69 0 011.74-1.76c.733-.427 1.553-.64 2.46-.64.853 0 1.606.193 2.26.58a4.057 4.057 0 011.56 1.62c.386.68.58 1.467.58 2.36 0 .107-.007.233-.02.38a4.49 4.49 0 01-.08.48h-8.14v-1.2h7.38l-.5.44c.013-.693-.107-1.287-.36-1.78a2.562 2.562 0 00-1.06-1.16c-.454-.28-1.007-.42-1.66-.42-.68 0-1.274.147-1.78.44a3.159 3.159 0 00-1.2 1.24c-.28.52-.42 1.14-.42 1.86 0 .72.146 1.353.44 1.9a3.32 3.32 0 001.26 1.28c.546.307 1.173.46 1.88.46.573 0 1.1-.1 1.58-.3.48-.213.886-.527 1.22-.94l.9.92c-.44.52-.987.927-1.64 1.22-.64.28-1.334.42-2.08.42zm10.821 0c-.866 0-1.646-.213-2.34-.64a4.73 4.73 0 01-1.66-1.74c-.4-.747-.6-1.58-.6-2.5 0-.933.2-1.767.6-2.5a4.688 4.688 0 011.66-1.76c.694-.44 1.474-.66 2.34-.66.707 0 1.347.14 1.92.42.574.28 1.047.68 1.42 1.2.387.507.614 1.107.68 1.8v2.94a3.79 3.79 0 01-2.08 3c-.573.293-1.22.44-1.94.44zm.24-1.34c.654 0 1.227-.147 1.72-.44.494-.307.88-.727 1.16-1.26.28-.547.42-1.167.42-1.86 0-.707-.146-1.327-.44-1.86a3.208 3.208 0 00-1.16-1.26c-.493-.307-1.066-.46-1.72-.46-.653 0-1.233.153-1.74.46a3.268 3.268 0 00-1.2 1.28c-.28.533-.42 1.147-.42 1.84 0 .693.14 1.313.42 1.86.294.533.694.953 1.2 1.26a3.52 3.52 0 001.76.44zm4.62 1.14h-1.4v-2.52l.28-2.32-.28-2.26v-7.06h1.4V45zm9.316 0V34c0-.653.14-1.233.42-1.74.294-.507.694-.9 1.2-1.18a3.52 3.52 0 011.76-.44c.507 0 .954.093 1.34.28.387.173.74.42 1.06.74l-.92.92a1.984 1.984 0 00-.68-.46 1.862 1.862 0 00-.8-.16c-.626 0-1.113.187-1.46.56-.333.36-.5.867-.5 1.52V45h-1.42zm-2.36-8.14V35.6h6.92v1.26h-6.92zM89.53 45.2c-.907 0-1.733-.22-2.48-.66a5.003 5.003 0 01-1.76-1.78c-.427-.747-.64-1.58-.64-2.5 0-.907.213-1.727.64-2.46a4.892 4.892 0 011.76-1.74 4.794 4.794 0 012.48-.66c.92 0 1.747.213 2.48.64a4.692 4.692 0 011.74 1.76c.44.733.66 1.553.66 2.46 0 .933-.22 1.773-.66 2.52a4.892 4.892 0 01-1.74 1.76c-.733.44-1.56.66-2.48.66zm0-1.36c.667 0 1.253-.153 1.76-.46.52-.307.927-.733 1.22-1.28.307-.547.46-1.16.46-1.84 0-.68-.153-1.28-.46-1.8a3.26 3.26 0 00-1.22-1.26c-.507-.307-1.093-.46-1.76-.46-.653 0-1.24.153-1.76.46a3.26 3.26 0 00-1.22 1.26c-.293.52-.44 1.12-.44 1.8 0 .693.147 1.313.44 1.86.293.533.7.953 1.22 1.26.52.307 1.107.46 1.76.46zM97.037 45v-9.4h1.4V45h-1.4zm1.4-5.48l-.58-.26c0-1.187.287-2.127.86-2.82.587-.693 1.387-1.04 2.4-1.04.467 0 .894.087 1.28.26.387.16.747.42 1.08.78l-.92.98a1.948 1.948 0 00-.76-.54 2.459 2.459 0 00-.92-.16c-.72 0-1.306.24-1.76.72-.453.467-.68 1.16-.68 2.08zm18.558 5.68c-.986 0-1.906-.18-2.76-.54a6.645 6.645 0 01-2.2-1.52 7.102 7.102 0 01-1.46-2.26 7.684 7.684 0 01-.5-2.78c0-.987.167-1.907.5-2.76a6.979 6.979 0 011.44-2.26 6.792 6.792 0 014.92-2.04c1.054 0 1.994.187 2.82.56.84.373 1.574.887 2.2 1.54l-1 1a4.943 4.943 0 00-1.74-1.24c-.68-.307-1.44-.46-2.28-.46a5.38 5.38 0 00-2.14.42c-.64.28-1.206.68-1.7 1.2a5.412 5.412 0 00-1.12 1.8 6.378 6.378 0 00-.38 2.24c0 .813.134 1.567.4 2.26.267.693.64 1.3 1.12 1.82.48.507 1.047.9 1.7 1.18a5.38 5.38 0 002.14.42c.88 0 1.66-.153 2.34-.46a5.114 5.114 0 001.76-1.26l1 1.02a6.86 6.86 0 01-2.2 1.56c-.853.373-1.806.56-2.86.56zm7.687-.2v-9.4h1.4V45h-1.4zm1.4-5.48l-.58-.26c0-1.187.287-2.127.86-2.82.587-.693 1.387-1.04 2.4-1.04.467 0 .894.087 1.28.26.387.16.747.42 1.08.78l-.92.98a1.948 1.948 0 00-.76-.54 2.459 2.459 0 00-.92-.16c-.72 0-1.306.24-1.76.72-.453.467-.68 1.16-.68 2.08zm10.938 5.68c-.947 0-1.793-.213-2.54-.64a4.794 4.794 0 01-1.78-1.76c-.427-.747-.64-1.587-.64-2.52 0-.92.213-1.747.64-2.48a4.696 4.696 0 011.74-1.76c.733-.427 1.553-.64 2.46-.64.853 0 1.607.193 2.26.58a4.052 4.052 0 011.56 1.62c.387.68.58 1.467.58 2.36 0 .107-.007.233-.02.38a4.39 4.39 0 01-.08.48h-8.14v-1.2h7.38l-.5.44c.013-.693-.107-1.287-.36-1.78a2.56 2.56 0 00-1.06-1.16c-.453-.28-1.007-.42-1.66-.42-.68 0-1.273.147-1.78.44a3.155 3.155 0 00-1.2 1.24c-.28.52-.42 1.14-.42 1.86 0 .72.147 1.353.44 1.9.307.547.727.973 1.26 1.28.547.307 1.173.46 1.88.46.573 0 1.1-.1 1.58-.3.48-.213.887-.527 1.22-.94l.9.92c-.44.52-.987.927-1.64 1.22a5.13 5.13 0 01-2.08.42zm10.902 0c-.893 0-1.693-.213-2.4-.64a4.83 4.83 0 01-1.68-1.76c-.4-.733-.6-1.56-.6-2.48 0-.933.2-1.767.6-2.5a4.632 4.632 0 011.68-1.76c.707-.44 1.5-.66 2.38-.66.72 0 1.36.147 1.92.44.573.28 1.033.68 1.38 1.2.36.507.58 1.1.66 1.78v2.94c-.08.68-.3 1.28-.66 1.8-.347.52-.807.927-1.38 1.22-.56.28-1.193.42-1.9.42zm.22-1.34c.973 0 1.753-.327 2.34-.98.6-.653.9-1.513.9-2.58 0-.707-.14-1.327-.42-1.86a2.913 2.913 0 00-1.14-1.26c-.48-.307-1.047-.46-1.7-.46-.667 0-1.26.153-1.78.46a3.416 3.416 0 00-1.22 1.28c-.293.533-.44 1.147-.44 1.84 0 .693.147 1.307.44 1.84.307.533.72.953 1.24 1.26.52.307 1.113.46 1.78.46zm3.16 1.14v-2.52l.28-2.32-.28-2.26v-2.3h1.4V45h-1.4zm6.021 0V31.64h1.4V45h-1.4zm-2.38-8.14V35.6h6.14v1.26h-6.14zm12.396 8.34c-.906 0-1.733-.22-2.48-.66a5.006 5.006 0 01-1.76-1.78c-.426-.747-.64-1.58-.64-2.5 0-.907.214-1.727.64-2.46a4.895 4.895 0 011.76-1.74 4.797 4.797 0 012.48-.66c.92 0 1.747.213 2.48.64a4.682 4.682 0 011.74 1.76c.44.733.66 1.553.66 2.46 0 .933-.22 1.773-.66 2.52a4.881 4.881 0 01-1.74 1.76c-.733.44-1.56.66-2.48.66zm0-1.36c.667 0 1.254-.153 1.76-.46.52-.307.927-.733 1.22-1.28.307-.547.46-1.16.46-1.84 0-.68-.153-1.28-.46-1.8a3.257 3.257 0 00-1.22-1.26c-.506-.307-1.093-.46-1.76-.46a3.4 3.4 0 00-1.76.46c-.52.307-.926.727-1.22 1.26-.293.52-.44 1.12-.44 1.8 0 .693.147 1.313.44 1.86.294.533.7.953 1.22 1.26a3.4 3.4 0 001.76.46zm7.508 1.16v-9.4h1.4V45h-1.4zm1.4-5.48l-.58-.26c0-1.187.286-2.127.86-2.82.586-.693 1.386-1.04 2.4-1.04.466 0 .893.087 1.28.26.386.16.746.42 1.08.78l-.92.98a1.955 1.955 0 00-.76-.54 2.466 2.466 0 00-.92-.16c-.72 0-1.307.24-1.76.72-.454.467-.68 1.16-.68 2.08zm9.594 5.68c-.506 0-.993-.067-1.46-.2a5.145 5.145 0 01-1.28-.6 4.506 4.506 0 01-.98-.9l.9-.92c.374.453.794.793 1.26 1.02a3.9 3.9 0 001.6.32c.627 0 1.114-.12 1.46-.36.36-.24.54-.573.54-1 0-.4-.126-.713-.38-.94-.253-.227-.58-.407-.98-.54-.386-.133-.8-.26-1.24-.38a9.459 9.459 0 01-1.26-.48c-.4-.2-.726-.473-.98-.82-.24-.347-.36-.8-.36-1.36 0-.533.127-.993.38-1.38.267-.4.64-.707 1.12-.92.494-.227 1.074-.34 1.74-.34.707 0 1.347.127 1.92.38a3.252 3.252 0 011.38 1.12l-.9.9a2.68 2.68 0 00-1.06-.82c-.413-.2-.88-.3-1.4-.3-.6 0-1.06.12-1.38.36-.306.227-.46.527-.46.9 0 .36.127.647.38.86.254.2.574.367.96.5l1.26.38c.44.12.86.287 1.26.5.4.2.72.48.96.84.254.347.38.82.38 1.42 0 .84-.306 1.513-.92 2.02-.6.493-1.42.74-2.46.74z" fill="#fff"/></svg>