<svg width="228" height="19" viewBox="0 0 228 19" fill="none" xmlns="http://www.w3.org/2000/svg"><path d="M8.49 18.24a8.433 8.433 0 01-3.313-.648 7.97 7.97 0 01-2.64-1.824 8.502 8.502 0 01-1.752-2.712c-.4-1.04-.6-2.152-.6-3.336 0-1.184.2-2.288.6-3.312a8.362 8.362 0 011.728-2.712 8.147 8.147 0 015.904-2.448c1.264 0 2.392.224 3.384.672a8.28 8.28 0 012.64 1.848l-1.2 1.2a5.932 5.932 0 00-2.088-1.488c-.816-.368-1.728-.552-2.736-.552a6.45 6.45 0 00-2.568.504 6.234 6.234 0 00-2.04 1.44 6.488 6.488 0 00-1.344 2.16c-.304.816-.456 1.712-.456 2.688 0 .976.16 1.88.48 2.712.32.832.768 1.56 1.344 2.184a6.073 6.073 0 002.04 1.416 6.45 6.45 0 002.568.504c1.056 0 1.992-.184 2.808-.552a6.143 6.143 0 002.112-1.512l1.2 1.224a8.244 8.244 0 01-2.64 1.872c-1.024.448-2.168.672-3.432.672zm9.224-.24V6.72h1.68V18h-1.68zm1.68-6.576l-.696-.312c0-1.424.344-2.552 1.032-3.384.704-.832 1.664-1.248 2.88-1.248.56 0 1.072.104 1.536.312.464.192.896.504 1.296.936l-1.104 1.176a2.342 2.342 0 00-.912-.648 2.956 2.956 0 00-1.104-.192c-.864 0-1.568.288-2.112.864-.544.56-.816 1.392-.816 2.496zm12.813 6.816c-1.072 0-2.032-.256-2.88-.768a5.803 5.803 0 01-2.016-2.112c-.48-.88-.72-1.872-.72-2.976 0-1.12.24-2.12.72-3a5.564 5.564 0 012.016-2.112c.848-.528 1.8-.792 2.856-.792.864 0 1.632.176 2.304.528a4.13 4.13 0 011.656 1.44c.432.608.696 1.32.792 2.136v3.528c-.096.816-.36 1.536-.792 2.16a4.313 4.313 0 01-1.656 1.464c-.672.336-1.432.504-2.28.504zm.264-1.608c1.168 0 2.104-.392 2.808-1.176.72-.784 1.08-1.816 1.08-3.096 0-.848-.168-1.592-.504-2.232a3.492 3.492 0 00-1.368-1.512c-.576-.368-1.256-.552-2.04-.552-.8 0-1.512.184-2.136.552a4.099 4.099 0 00-1.464 1.536c-.352.64-.528 1.376-.528 2.208 0 .832.176 1.568.528 2.208.368.64.864 1.144 1.488 1.512.624.368 1.336.552 2.136.552zM36.263 18v-3.024l.336-2.784-.336-2.712V6.72h1.68V18h-1.68zm7.13 0V4.8c0-.784.167-1.48.503-2.088a3.71 3.71 0 011.44-1.416c.624-.352 1.328-.528 2.112-.528.608 0 1.144.112 1.608.336.464.208.888.504 1.272.888l-1.104 1.104a2.38 2.38 0 00-.816-.552 2.234 2.234 0 00-.96-.192c-.752 0-1.336.224-1.752.672-.4.432-.6 1.04-.6 1.824V18h-1.704zM40.56 8.232V6.72h8.304v1.512H40.56zM52.757 18V1.968h1.68V18h-1.68zm-2.856-9.768V6.72h7.368v1.512h-7.368zM64.873 18.24c-1.136 0-2.152-.256-3.048-.768a5.755 5.755 0 01-2.136-2.112c-.512-.896-.768-1.904-.768-3.024 0-1.104.256-2.096.768-2.976a5.63 5.63 0 012.088-2.112c.88-.512 1.864-.768 2.952-.768 1.024 0 1.928.232 2.712.696a4.867 4.867 0 011.872 1.944c.464.816.696 1.76.696 2.832 0 .128-.008.28-.024.456-.016.16-.048.352-.096.576h-9.768v-1.44h8.856l-.6.528c.016-.832-.128-1.544-.432-2.136a3.074 3.074 0 00-1.272-1.392c-.544-.336-1.208-.504-1.992-.504-.816 0-1.528.176-2.136.528a3.791 3.791 0 00-1.44 1.488c-.336.624-.504 1.368-.504 2.232 0 .864.176 1.624.528 2.28a3.986 3.986 0 001.512 1.536c.656.368 1.408.552 2.256.552.688 0 1.32-.12 1.896-.36a3.882 3.882 0 001.464-1.128l1.08 1.104a5.474 5.474 0 01-1.968 1.464c-.768.336-1.6.504-2.496.504zm12.986 0c-1.04 0-1.976-.256-2.808-.768a5.677 5.677 0 01-1.992-2.088c-.48-.896-.72-1.896-.72-3 0-1.12.24-2.12.72-3a5.626 5.626 0 011.992-2.112c.832-.528 1.768-.792 2.808-.792.848 0 1.616.168 2.304.504a4.496 4.496 0 011.704 1.44c.464.608.736 1.328.816 2.16v3.528a4.548 4.548 0 01-.816 2.16 4.588 4.588 0 01-1.68 1.44c-.688.352-1.464.528-2.328.528zm.288-1.608c.784 0 1.472-.176 2.064-.528a3.849 3.849 0 001.392-1.512c.336-.656.504-1.4.504-2.232 0-.848-.176-1.592-.528-2.232a3.849 3.849 0 00-1.392-1.512c-.592-.368-1.28-.552-2.064-.552s-1.48.184-2.088.552a3.922 3.922 0 00-1.44 1.536c-.336.64-.504 1.376-.504 2.208 0 .832.168 1.576.504 2.232.352.64.832 1.144 1.44 1.512.624.352 1.328.528 2.112.528zM83.691 18h-1.68v-3.024l.336-2.784-.336-2.712V1.008h1.68V18zm11.18 0V4.8c0-.784.168-1.48.504-2.088a3.71 3.71 0 011.44-1.416c.624-.352 1.328-.528 2.112-.528.607 0 1.143.112 1.607.336.464.208.888.504 1.272.888l-1.104 1.104a2.383 2.383 0 00-.816-.552 2.234 2.234 0 00-.96-.192c-.752 0-1.335.224-1.752.672-.4.432-.6 1.04-.6 1.824V18h-1.703zm-2.832-9.768V6.72h8.303v1.512h-8.303zm15.486 10.008c-1.088 0-2.08-.264-2.976-.792a6.004 6.004 0 01-2.112-2.136c-.512-.896-.768-1.896-.768-3 0-1.088.256-2.072.768-2.952a5.87 5.87 0 012.112-2.088c.896-.528 1.888-.792 2.976-.792 1.104 0 2.096.256 2.976.768a5.63 5.63 0 012.088 2.112c.528.88.792 1.864.792 2.952 0 1.12-.264 2.128-.792 3.024a5.87 5.87 0 01-2.088 2.112c-.88.528-1.872.792-2.976.792zm0-1.632c.8 0 1.504-.184 2.112-.552a3.868 3.868 0 001.464-1.536c.368-.656.552-1.392.552-2.208 0-.816-.184-1.536-.552-2.16a3.91 3.91 0 00-1.464-1.512c-.608-.368-1.312-.552-2.112-.552-.784 0-1.488.184-2.112.552a3.91 3.91 0 00-1.464 1.512c-.352.624-.528 1.344-.528 2.16 0 .832.176 1.576.528 2.232a3.91 3.91 0 001.464 1.512c.624.368 1.328.552 2.112.552zM116.534 18V6.72h1.68V18h-1.68zm1.68-6.576l-.696-.312c0-1.424.344-2.552 1.032-3.384.704-.832 1.664-1.248 2.88-1.248.56 0 1.072.104 1.536.312.464.192.896.504 1.296.936l-1.104 1.176a2.342 2.342 0 00-.912-.648 2.956 2.956 0 00-1.104-.192c-.864 0-1.568.288-2.112.864-.544.56-.816 1.392-.816 2.496zm22.27 6.816a8.433 8.433 0 01-3.312-.648 7.97 7.97 0 01-2.64-1.824 8.502 8.502 0 01-1.752-2.712c-.4-1.04-.6-2.152-.6-3.336 0-1.184.2-2.288.6-3.312a8.362 8.362 0 011.728-2.712 8.147 8.147 0 015.904-2.448c1.264 0 2.392.224 3.384.672a8.28 8.28 0 012.64 1.848l-1.2 1.2a5.932 5.932 0 00-2.088-1.488c-.816-.368-1.728-.552-2.736-.552a6.45 6.45 0 00-2.568.504 6.234 6.234 0 00-2.04 1.44 6.488 6.488 0 00-1.344 2.16c-.304.816-.456 1.712-.456 2.688 0 .976.16 1.88.48 2.712.32.832.768 1.56 1.344 2.184a6.073 6.073 0 002.04 1.416 6.45 6.45 0 002.568.504c1.056 0 1.992-.184 2.808-.552a6.143 6.143 0 002.112-1.512l1.2 1.224a8.244 8.244 0 01-2.64 1.872c-1.024.448-2.168.672-3.432.672zm9.224-.24V6.72h1.68V18h-1.68zm1.68-6.576l-.696-.312c0-1.424.344-2.552 1.032-3.384.704-.832 1.664-1.248 2.88-1.248.56 0 1.072.104 1.536.312.464.192.896.504 1.296.936l-1.104 1.176a2.342 2.342 0 00-.912-.648 2.956 2.956 0 00-1.104-.192c-.864 0-1.568.288-2.112.864-.544.56-.816 1.392-.816 2.496zm13.125 6.816c-1.136 0-2.152-.256-3.048-.768a5.755 5.755 0 01-2.136-2.112c-.512-.896-.768-1.904-.768-3.024 0-1.104.256-2.096.768-2.976a5.63 5.63 0 012.088-2.112c.88-.512 1.864-.768 2.952-.768 1.024 0 1.928.232 2.712.696a4.867 4.867 0 011.872 1.944c.464.816.696 1.76.696 2.832 0 .128-.008.28-.024.456-.016.16-.048.352-.096.576h-9.768v-1.44h8.856l-.6.528c.016-.832-.128-1.544-.432-2.136a3.074 3.074 0 00-1.272-1.392c-.544-.336-1.208-.504-1.992-.504-.816 0-1.528.176-2.136.528a3.791 3.791 0 00-1.44 1.488c-.336.624-.504 1.368-.504 2.232 0 .864.176 1.624.528 2.28a3.986 3.986 0 001.512 1.536c.656.368 1.408.552 2.256.552.688 0 1.32-.12 1.896-.36a3.882 3.882 0 001.464-1.128l1.08 1.104a5.474 5.474 0 01-1.968 1.464c-.768.336-1.6.504-2.496.504zm13.082 0c-1.072 0-2.032-.256-2.88-.768a5.803 5.803 0 01-2.016-2.112c-.48-.88-.72-1.872-.72-2.976 0-1.12.24-2.12.72-3a5.564 5.564 0 012.016-2.112c.848-.528 1.8-.792 2.856-.792.864 0 1.632.176 2.304.528a4.13 4.13 0 011.656 1.44c.432.608.696 1.32.792 2.136v3.528c-.096.816-.36 1.536-.792 2.16a4.313 4.313 0 01-1.656 1.464c-.672.336-1.432.504-2.28.504zm.264-1.608c1.168 0 2.104-.392 2.808-1.176.72-.784 1.08-1.816 1.08-3.096 0-.848-.168-1.592-.504-2.232a3.492 3.492 0 00-1.368-1.512c-.576-.368-1.256-.552-2.04-.552-.8 0-1.512.184-2.136.552a4.099 4.099 0 00-1.464 1.536c-.352.64-.528 1.376-.528 2.208 0 .832.176 1.568.528 2.208.368.64.864 1.144 1.488 1.512.624.368 1.336.552 2.136.552zM181.651 18v-3.024l.336-2.784-.336-2.712V6.72h1.68V18h-1.68zm7.226 0V1.968h1.68V18h-1.68zm-2.856-9.768V6.72h7.368v1.512h-7.368zm14.875 10.008c-1.088 0-2.08-.264-2.976-.792a6.004 6.004 0 01-2.112-2.136c-.512-.896-.768-1.896-.768-3 0-1.088.256-2.072.768-2.952a5.87 5.87 0 012.112-2.088c.896-.528 1.888-.792 2.976-.792 1.104 0 2.096.256 2.976.768a5.63 5.63 0 012.088 2.112c.528.88.792 1.864.792 2.952 0 1.12-.264 2.128-.792 3.024a5.87 5.87 0 01-2.088 2.112c-.88.528-1.872.792-2.976.792zm0-1.632c.8 0 1.504-.184 2.112-.552a3.868 3.868 0 001.464-1.536c.368-.656.552-1.392.552-2.208 0-.816-.184-1.536-.552-2.16a3.91 3.91 0 00-1.464-1.512c-.608-.368-1.312-.552-2.112-.552-.784 0-1.488.184-2.112.552a3.91 3.91 0 00-1.464 1.512c-.352.624-.528 1.344-.528 2.16 0 .832.176 1.576.528 2.232a3.91 3.91 0 001.464 1.512c.624.368 1.328.552 2.112.552zM209.905 18V6.72h1.68V18h-1.68zm1.68-6.576l-.696-.312c0-1.424.344-2.552 1.032-3.384.704-.832 1.664-1.248 2.88-1.248.56 0 1.072.104 1.536.312.464.192.896.504 1.296.936l-1.104 1.176a2.342 2.342 0 00-.912-.648 2.956 2.956 0 00-1.104-.192c-.864 0-1.568.288-2.112.864-.544.56-.816 1.392-.816 2.496zm11.514 6.816c-.608 0-1.192-.08-1.752-.24a6.152 6.152 0 01-1.536-.72 5.4 5.4 0 01-1.176-1.08l1.08-1.104c.448.544.952.952 1.512 1.224a4.676 4.676 0 001.92.384c.752 0 1.336-.144 1.752-.432.432-.288.648-.688.648-1.2 0-.48-.152-.856-.456-1.128-.304-.272-.696-.488-1.176-.648a23.7 23.7 0 00-1.488-.456 11.362 11.362 0 01-1.512-.576 3.207 3.207 0 01-1.176-.984c-.288-.416-.432-.96-.432-1.632 0-.64.152-1.192.456-1.656.32-.48.768-.848 1.344-1.104.592-.272 1.288-.408 2.088-.408.848 0 1.616.152 2.304.456.688.304 1.24.752 1.656 1.344l-1.08 1.08a3.218 3.218 0 00-1.272-.984c-.496-.24-1.056-.36-1.68-.36-.72 0-1.272.144-1.656.432a1.279 1.279 0 00-.552 1.08c0 .432.152.776.456 1.032.304.24.688.44 1.152.6l1.512.456a7.264 7.264 0 011.512.6c.48.24.864.576 1.152 1.008.304.416.456.984.456 1.704 0 1.008-.368 1.816-1.104 2.424-.72.592-1.704.888-2.952.888z" fill="#fff"/></svg>