<?xml version="1.0" encoding="UTF-8"?>
<svg width="200px" height="120px" viewBox="0 0 200 120" version="1.1" xmlns="http://www.w3.org/2000/svg" xmlns:xlink="http://www.w3.org/1999/xlink">
    <!-- Generator: Sketch 53.2 (72643) - https://sketchapp.com -->
    <title>Artboard</title>
    <desc>Created with Sketch.</desc>
    <defs>
        <polygon id="path-1" points="0.443155722 0.285053411 64.7438352 0.285053411 64.7438352 119.212894 0.443155722 119.212894"></polygon>
    </defs>
    <g id="Artboard" stroke="none" stroke-width="1" fill="none" fill-rule="evenodd">
        <g id="AT-logo" transform="translate(-0.000000, 0.000000)">
            <path d="M65.7103076,109.214998 C64.1835207,110.490067 64.1835207,112.555274 65.7103076,113.829102 C67.2385849,115.100444 69.7168189,115.100444 71.2436058,113.829102 C72.7738705,112.555274 72.7738705,110.490067 71.2436058,109.214998 C69.7168189,107.942827 67.2385849,107.942827 65.7103076,109.214998" id="Fill-1" fill="#010202" fill-rule="nonzero"></path>
            <path d="M97.1728302,16.5544743 C97.1728302,11.6379646 97.2683232,7.49698579 95.6657856,4.24129644 C94.8184669,2.50971066 93.2944565,1.06696321 92.0743757,0.557644963 C90.0510871,-0.290095529 84.4960112,-0.106683191 82.8047669,0.673661692 C79.3185447,2.28537956 77.9869746,6.34692785 76.9564256,10.4999416 C68.6325369,44.07836 61.5408475,65.8124814 58.5049452,74.3057724 C52.9910718,89.7229995 45.7893472,107.853863 33.094593,107.853863 C31.252111,107.853863 29.3597012,107.297849 27.620468,106.060177 C22.4303983,102.36449 24.4449616,96.0110099 24.6480661,95.2898769 C25.8230664,91.0896862 24.6878144,88.1911936 23.5850398,86.6564993 C21.776974,84.1402361 18.7027776,81.2359667 13.2824583,81.2359667 C5.84563671,81.2359667 0.652173913,86.9020119 0.652173913,92.5021056 C0.652173913,97.8624636 2.89553268,103.964655 7.53494209,108.783441 C12.3401312,113.77553 19.6833987,117.391304 27.9782032,117.391304 C43.7369745,117.391304 52.9692587,105.945123 57.5761907,98.6360689 C63.2306376,89.6686017 66.8588874,79.0253907 69.0174174,74.782837 C69.9582902,72.9328275 71.4406133,70.8156426 74.1158719,71.09726 C75.9598081,71.2903003 77.4760627,73.2977266 77.4760627,79.0374256 L77.4760627,101.363184 C77.4760627,104.698785 77.8507637,110.26133 80.6888937,113.063543 C83.5696805,115.901861 89.3903918,115.37088 91.4001078,114.868783 C95.9658373,113.72739 97.1728302,109.696651 97.1728302,104.874495 L97.1728302,16.5544743 Z" id="Fill-3" fill="#010202" fill-rule="nonzero"></path>
            <path d="M65.7103076,98.780359 C64.1835207,100.05355 64.1835207,102.120053 65.7103076,103.392001 C67.2385849,104.666434 69.7168189,104.666434 71.2436058,103.392001 C72.7738705,102.120053 72.7738705,100.05355 71.2436058,98.780359 C69.7168189,97.5079963 67.2385849,97.5079963 65.7103076,98.780359" id="Fill-5" fill="#010202" fill-rule="nonzero"></path>
            <g id="Group-9" transform="translate(102.391304, 0.000000)">
                <g id="Fill-7-Clipped">
                    <mask id="mask-2" fill="white">
                        <use xlink:href="#path-1"></use>
                    </mask>
                    <g id="path-1"></g>
                    <path d="M39.2437378,82.1083611 C35.3316677,77.7902586 31.7262167,73.3087191 29.3871512,68.4243553 C27.8302077,65.1695549 26.7555808,60.7495446 26.941499,56.3602989 C27.1400714,51.7907918 28.4531798,48.0764449 29.9702141,44.9841201 C31.5544127,41.7504704 33.5849124,39.0950993 35.9059701,36.4820296 C38.2031798,33.8886685 46.1655419,27.4569406 47.5360805,26.3700843 C52.788514,22.2082084 54.6506165,17.7449353 54.7518494,13.3840508 C54.8491888,8.9275075 52.7705062,5.31843328 49.9783258,3.73357478 C45.2184296,1.02532702 39.3629786,4.05227699 36.3683323,6.94943872 C30.8735237,12.2697948 28.290623,19.0308002 26.2460091,27.1728486 C25.7982479,28.9595999 25.4011032,31.0559202 24.7343284,33.2642429 C24.4739455,34.1194031 24.0407852,35.6879179 23.2533095,36.6368141 C22.2434134,37.8563428 20.6231992,37.7395334 20.480597,35.8402989 C20.3379948,33.9804816 20.4299805,31.5303683 20.4299805,29.9320502 C20.4299805,27.489628 20.2980857,12.1092419 20.2980857,9.52309127 C20.2980857,4.06525581 17.3628164,0.285053411 12.1902012,0.285053411 L8.87238806,0.285053411 C3.70269306,0.285053411 1.3655743,3.37257121 0.767423751,7.18017335 C0.469565217,9.08998313 0.534782609,11.3502211 0.534782609,13.844078 L0.534782609,96.1187603 C0.534782609,98.0141492 0.469565217,99.9951021 0.449610642,101.933754 L0.449610642,101.954904 C0.447663855,102.224095 0.447663855,102.487517 0.447663855,102.752381 C0.43890331,104.924171 0.417001947,106.901278 0.680791694,108.596697 C1.28040234,112.403338 3.61752109,115.492778 8.78721609,115.492778 L8.212427,115.492778 L12.4447437,115.492778 C17.4567489,115.492778 20.2119403,112.639841 20.2119403,107.257955 L20.2119403,91.7497039 C20.2119403,90.2441604 20.1968527,88.4107815 20.4625892,87.1013624 C20.845133,85.2203945 23.2348151,84.9709127 24.4019143,86.5653851 C24.9927644,87.3739177 27.4710253,92.7985851 28.2239455,94.3935382 C29.9687541,98.0809661 31.7116158,101.555445 33.4583712,104.73718 C36.9659961,111.111704 42.3143089,119.212894 50.3282609,119.212894 C60.2447112,119.212894 64.7442245,112.502361 64.7442245,106.727746 C64.7442245,103.589755 63.723621,100.61424 61.0949708,98.0203982 C56.5146658,93.506652 45.7280013,89.2683452 39.2437378,82.1083611" id="Fill-7" fill="#010202" fill-rule="nonzero" mask="url(#mask-2)"></path>
                </g>
            </g>
        </g>
    </g>
</svg>